<svg width="2447" height="1383" viewBox="0 0 2447 1383" fill="none" xmlns="http://www.w3.org/2000/svg">
<path d="M1715.73 0.157403C1716.35 0.108952 1716.98 0.0583785 1717.6 0.0099272C1800.9 -0.434561 1910.3 13.909 1974.36 70.9678C2036.6 126.383 2043.59 222.481 2048.12 299.641C2008.77 237.636 1991.72 219.349 1916.3 207.028C1852.96 196.678 1790.49 195.755 1726.54 193.425C1705.57 192.661 1682.82 196.739 1661.64 196.427C1402.2 203.362 1139.34 242.085 885.045 292.7C858.785 297.926 755.6 320.075 740.316 330.854L740.592 335.329C764.569 367.958 878.011 387.846 917.514 394.222C997.627 407.07 1078.3 416.127 1159.27 421.357C1278.45 429.906 1483.61 423.055 1531.64 563.867C1539.39 586.587 1540.02 622.523 1535.09 646.04C1521.81 709.425 1470.23 746.771 1419.28 779.758C1468.84 805.837 1520.5 827.725 1573.72 845.188C1831.28 928.377 2080.25 906.3 2316.39 781.19C2338.7 769.372 2425.37 713.523 2445.02 719.891C2465.94 754.66 2314.56 1041.04 2280.43 1078.74C2288.14 1056.86 2292.94 1029.53 2300.17 1007.35C2312.07 970.93 2322.25 936.93 2332.06 899.959C2321.76 904.257 2310.17 909.839 2300.4 914.979C2055.79 1043.71 1767.91 1091.13 1503.72 994.523C1437.55 970.319 1391.49 950.327 1387.28 870.046C1374.66 902.655 1361.56 942.048 1332.63 962.187C1226.34 1036.21 1066.47 1040.4 945.421 1025.68C894.506 1151.74 787.193 1292.77 666.718 1358.03C659.72 1361.78 652.597 1365.28 645.365 1368.55C605.826 1386.28 579.581 1387.65 538.397 1372.74C460.594 1344.55 364.077 1230.48 331.033 1156.88C269.284 1167.83 220.446 1173.54 158.692 1157.53C-34.7967 1107.37 -23.6775 843.545 46.7329 697.312C50.249 824.038 102.093 928.44 239.872 940.679C434.205 957.953 458.26 771.626 467.323 625.524C469.391 630.49 471.42 635.474 473.411 640.473C484.086 667.351 491.777 693.567 500.181 720.976C556.763 905.499 544.744 1075.46 340.128 1155.17C374.95 1169.24 429.903 1175.52 469.328 1174.57C577.794 1171.96 705.187 1155.19 803.315 1106.95C836.07 1090.84 876.439 1054.2 901.206 1029.45C869.729 1035.77 841.137 1043.73 808.993 1045.8C698.205 1050.31 635.099 991.216 627.751 882.938C617.72 763.284 657.335 654.899 794.202 650.681C841.651 649.219 884.457 663.112 919.812 695.985C970.853 743.447 976.573 807.88 978.14 873.711C1004.55 876.66 1027.64 873.627 1057.89 871.71C1207.98 862.968 1451.99 844.409 1380.99 625.217C1356.41 549.357 1161.19 564.055 1096.48 557.638C1039.79 552.127 975.638 555.386 919.848 549.445C864.593 543.56 774.47 552.245 753.991 489.355C744.283 459.552 725.283 326.867 734.944 301.765C750.239 284.908 838.124 250.777 862.619 240.215C1083.42 144.999 1316.89 61.0544 1553.97 18.5563C1609.09 8.67432 1660.49 5.02571 1715.73 0.157403Z" fill="black"/>
<path d="M2198.77 393.622C2222.85 388.833 2260.1 400.921 2277.52 418.159C2304.97 445.311 2292.27 488.14 2278.83 518.731C2267.79 545.691 2251.08 566.561 2230.56 586.603C2177.47 638.444 2085.24 656.699 2021.58 613.925C2010.54 606.506 2003.5 599.011 1994.29 588.962C1981.59 571.229 1979.17 564.716 1972.74 543.629C2021.18 575.234 2085.37 579.285 2141.89 576.683C2179.41 574.954 2208.21 565.373 2236.21 539.843C2213.67 539.289 2179.14 539.797 2160.81 526.119C2110.25 488.386 2141.74 405.263 2198.77 393.622Z" fill="black"/>
<path d="M246.362 537.496C248.166 539.398 262.272 559.958 265.533 564.209C294.355 601.788 319.006 628.287 361.755 651.106C318.243 671.289 270.056 722.226 247.041 765.2C240.893 759.028 229.262 741.098 222.571 732.601C195.441 698.139 169.392 673.947 131.58 651.396C193.697 609.229 202.878 597.99 246.362 537.496Z" fill="black"/>
</svg>
