<svg width="66" height="35" viewBox="0 0 66 35" fill="none" xmlns="http://www.w3.org/2000/svg">
<g clip-path="url(#clip0_120_779)">
<path d="M0.579132 12.249C0.208993 11.8783 0.00109268 11.3759 0.00109268 10.8521C0.00109268 10.3283 0.208993 9.8259 0.579132 9.45526L9.90108 0.132522C9.92879 0.093191 9.96554 0.0610951 10.0082 0.0389409C10.051 0.0167867 10.0984 0.00522294 10.1465 0.00522294C10.1946 0.00522294 10.242 0.0167867 10.2847 0.0389409C10.3274 0.0610951 10.3642 0.093191 10.3919 0.132522L20.6391 10.3798C20.8658 10.5939 21.1658 10.7132 21.4776 10.7132C21.7894 10.7132 22.0894 10.5939 22.3161 10.3798L32.5502 0.131043C32.5779 0.0920213 32.6146 0.0602048 32.6572 0.0382513C32.6997 0.0162978 32.7469 0.00484322 32.7948 0.00484322C32.8427 0.00484322 32.8899 0.0162978 32.9325 0.0382513C32.975 0.0602048 33.0117 0.0920213 33.0395 0.131043L43.2882 10.3798C43.5149 10.5939 43.8149 10.7132 44.1267 10.7132C44.4385 10.7132 44.7385 10.5939 44.9652 10.3798L55.1985 0.132522C55.2252 0.0919371 55.2614 0.05859 55.3041 0.0354638C55.3468 0.0123376 55.3946 0.00015256 55.4431 1.42344e-06C55.4917 -0.000149713 55.5395 0.0117367 55.5823 0.0345967C55.6252 0.0574567 55.6617 0.0905777 55.6886 0.130996L65.0212 9.46448C65.2046 9.64792 65.3501 9.8657 65.4494 10.1054C65.5487 10.345 65.5998 10.6019 65.5998 10.8613C65.5998 11.1207 65.5487 11.3776 65.4494 11.6173C65.3501 11.857 65.2046 12.0747 65.0212 12.2582C64.8377 12.4416 64.62 12.5871 64.3803 12.6864C64.1406 12.7856 63.8837 12.8367 63.6243 12.8367C63.3649 12.8367 63.108 12.7856 62.8684 12.6863C62.6287 12.5871 62.4109 12.4416 62.2275 12.2581L56.2843 6.3158C56.062 6.09353 55.7605 5.96861 55.4461 5.9685H55.4454C55.131 5.96861 54.8296 6.09353 54.6073 6.3158L44.3639 16.5738C44.3014 16.6357 44.2169 16.6705 44.129 16.6705C44.041 16.6705 43.9565 16.6357 43.894 16.5738L33.6351 6.3158C33.4128 6.09354 33.1114 5.96862 32.7971 5.9685H32.7964C32.482 5.9686 32.1806 6.09352 31.9583 6.3158L21.7149 16.5738C21.6523 16.6357 21.5679 16.6704 21.4799 16.6704C21.3919 16.6704 21.3074 16.6357 21.2449 16.5738L10.9845 6.31423C10.8745 6.20413 10.7438 6.11679 10.6 6.05721C10.4562 5.99762 10.3021 5.96695 10.1464 5.96695C9.99077 5.96695 9.83663 5.99762 9.69283 6.05721C9.54902 6.11679 9.41837 6.20413 9.30833 6.31423L3.37285 12.249C3.00154 12.6179 2.49939 12.8249 1.97599 12.8249C1.45259 12.8249 0.950444 12.6179 0.579132 12.249V12.249ZM55.6592 18.0216C55.6313 17.9931 55.5979 17.9704 55.5611 17.955C55.5242 17.9397 55.4847 17.9319 55.4447 17.9321C55.4044 17.9318 55.3645 17.9395 55.3272 17.9549C55.2899 17.9702 55.2562 17.9929 55.2279 18.0216L44.9652 28.2997C44.7429 28.522 44.4415 28.6469 44.1271 28.6469H44.1263C43.8119 28.6469 43.5105 28.522 43.2882 28.2997L33.0101 18.0216C32.9822 17.993 32.9488 17.9704 32.912 17.955C32.8751 17.9397 32.8356 17.9319 32.7956 17.9321C32.7553 17.9317 32.7153 17.9395 32.6781 17.9548C32.6408 17.9702 32.607 17.9929 32.5787 18.0216L22.3161 28.2997C22.0938 28.522 21.7923 28.6469 21.4779 28.6469H21.4772C21.1628 28.6468 20.8614 28.522 20.6391 28.2997L10.3618 18.0216C10.3009 17.9722 10.2249 17.9452 10.1465 17.9452C10.0681 17.9452 9.99204 17.9722 9.93116 18.0216L0.579132 27.3736C0.208462 27.7441 0.000141685 28.2466 7.22464e-08 28.7707C-0.00014154 29.2948 0.207907 29.7974 0.578377 30.1681C0.948847 30.5388 1.45139 30.7471 1.97546 30.7472C2.49952 30.7474 3.00218 30.5393 3.37285 30.1689L9.30833 24.2341C9.41838 24.124 9.54904 24.0367 9.69284 23.9771C9.83664 23.9176 9.99077 23.8869 10.1464 23.8869C10.3021 23.8869 10.4562 23.9176 10.6 23.9771C10.7438 24.0367 10.8745 24.124 10.9845 24.2341L21.2295 34.4782C21.2962 34.544 21.3861 34.5808 21.4798 34.5805C21.5735 34.5802 21.6632 34.5429 21.7295 34.4767L31.9582 24.2357C32.0683 24.1256 32.1991 24.0382 32.3429 23.9786C32.4868 23.919 32.641 23.8884 32.7967 23.8884C32.9524 23.8884 33.1066 23.919 33.2505 23.9786C33.3943 24.0382 33.5251 24.1256 33.6352 24.2357L43.8778 34.4782C43.9446 34.544 44.0348 34.5808 44.1285 34.5805C44.2223 34.5802 44.3122 34.5429 44.3787 34.4767L54.6074 24.2356C54.8297 24.0134 55.1311 23.8884 55.4455 23.8883H55.4462C55.7606 23.8884 56.0621 24.0134 56.2844 24.2356L62.2275 30.1781C62.5982 30.5486 63.1009 30.7566 63.625 30.7565C64.149 30.7563 64.6516 30.548 65.0221 30.1773C65.3925 29.8066 65.6006 29.304 65.6004 28.7799C65.6003 28.2558 65.3919 27.7533 65.0213 27.3828L55.6592 18.0216Z" fill="black"></path>
</g>
<defs>
<clipPath id="clip0_120_779">
<rect width="65.6004" height="34.5805" fill="white"></rect>
</clipPath>
</defs>
</svg>