<svg width="66" height="54" viewBox="0 0 66 54" fill="none" xmlns="http://www.w3.org/2000/svg">
<g clip-path="url(#clip0_120_780)">
<path d="M15.815 3.95183C24.0891 3.95183 30.8203 12.9824 30.8203 24.0822V51.3259C30.8218 51.849 31.0306 52.3502 31.401 52.7195C31.7714 53.0889 32.2732 53.2963 32.7963 53.2963C33.3194 53.2963 33.8211 53.0889 34.1915 52.7195C34.5619 52.3502 34.7707 51.849 34.7722 51.3259V24.0822C34.7722 12.9824 41.5034 3.95183 49.7776 3.95183C52.298 4.02675 54.7464 4.80954 56.8428 6.21066C58.9393 7.61178 60.599 9.57465 61.6323 11.8748C61.7597 12.2262 61.9805 12.5362 62.2708 12.7716C62.5612 13.007 62.9101 13.1589 63.2803 13.2109C63.6504 13.263 64.0278 13.2132 64.3718 13.067C64.7158 12.9208 65.0135 12.6837 65.2329 12.3811C65.4076 12.136 65.5233 11.8538 65.571 11.5565C65.6186 11.2593 65.597 10.9551 65.5077 10.6676C63.3689 3.73879 55.8064 0 49.7776 0C43.335 0 37.3818 4.14478 33.8529 11.0867C33.743 11.2687 33.588 11.4192 33.4029 11.5236C33.2178 11.6281 33.0088 11.683 32.7963 11.683C32.5837 11.683 32.3747 11.6281 32.1896 11.5236C32.0045 11.4192 31.8495 11.2687 31.7396 11.0867C28.2108 4.14478 22.2575 0 15.815 0C9.78613 0 2.22362 3.73879 0.0856085 10.6676C-0.00239267 10.9574 -0.0228874 11.2635 0.0256949 11.5624C0.0742773 11.8613 0.190647 12.1451 0.365886 12.3921C0.541126 12.6391 0.770583 12.8427 1.03667 12.9873C1.30276 13.1319 1.59843 13.2136 1.901 13.2263C2.34583 13.2624 2.79 13.1491 3.16306 12.9041C3.53612 12.6591 3.81669 12.2966 3.96028 11.874C4.99369 9.57408 6.6535 7.61141 8.7499 6.21044C10.8463 4.80947 13.2947 4.02676 15.815 3.95183V3.95183Z" fill="black"></path>
</g>
<defs>
<clipPath id="clip0_120_780">
<rect width="65.5956" height="53.2963" fill="white"></rect>
</clipPath>
</defs>
</svg>