<svg width="66" height="49" viewBox="0 0 66 49" fill="none" xmlns="http://www.w3.org/2000/svg">
<g clip-path="url(#clip0_120_775)">
<path d="M12.5188 31.1968C15.8358 31.1911 19.0151 29.8698 21.3591 27.5229C23.7032 25.1759 25.0206 21.995 25.0222 18.6779C25.0294 16.5788 24.5036 14.5123 23.4939 12.6719C22.4843 10.8315 21.024 9.27761 19.2498 8.15579C19.0572 8.03369 18.9039 7.85861 18.8083 7.65157C18.7127 7.44452 18.6789 7.21429 18.711 6.98851C18.743 6.76272 18.8395 6.55097 18.9889 6.37867C19.1382 6.20636 19.3341 6.08081 19.5531 6.01708C25.9492 4.21903 32.611 3.55657 39.2359 4.05981C47.4131 4.73039 55.3742 7.02609 62.6528 10.8124C62.9928 11.0028 63.3813 11.0886 63.7698 11.0591C64.1582 11.0296 64.5294 10.8861 64.8367 10.6466C65.144 10.4072 65.3737 10.0823 65.4973 9.71282C65.6208 9.34332 65.6325 8.9456 65.531 8.56947C65.4665 8.31719 65.3502 8.08111 65.1894 7.87632C65.0286 7.67153 64.8269 7.50253 64.5971 7.38011C56.8542 3.20511 48.3118 0.724676 39.537 0.103431C38.1462 0.0347308 36.7801 0.000254256 35.4387 0C23.437 0 13.4342 2.75848 5.66051 8.21985C4.0781 9.2736 2.75193 10.6685 1.77945 12.3021C0.806974 13.9358 0.212908 15.7665 0.0409133 17.6599C0.0131383 18.0003 -0.000494799 18.3396 1.3714e-05 18.6779C0.0036841 21.997 1.32379 25.179 3.67072 27.526C6.01764 29.8729 9.1997 31.1931 12.5188 31.1968V31.1968ZM7.72502 11.5973C9.13607 10.6307 10.8084 10.1175 12.5188 10.1262C14.5738 10.124 16.5613 10.8597 18.1195 12.1994C19.6778 13.5392 20.7032 15.3939 21.0091 17.426C21.3151 19.4581 20.8812 21.5326 19.7864 23.2717C18.6917 25.0108 17.0089 26.2991 15.0443 26.902C13.0797 27.5049 10.9639 27.3823 9.08208 26.5566C7.20025 25.7309 5.67744 24.257 4.79083 22.4031C3.90422 20.5491 3.71275 18.4385 4.25127 16.4553C4.78978 14.4721 6.02249 12.7482 7.72502 11.5973V11.5973ZM53.0793 17.2115C49.7622 17.2172 46.5829 18.5385 44.2389 20.8854C41.8948 23.2324 40.5775 26.4133 40.5759 29.7304C40.5685 31.8295 41.0942 33.8961 42.1039 35.7365C43.1135 37.5769 44.5739 39.1308 46.3483 40.2525C46.5409 40.3746 46.6941 40.5497 46.7897 40.7567C46.8853 40.9638 46.9191 41.194 46.8871 41.4198C46.855 41.6456 46.7586 41.8573 46.6092 42.0296C46.4598 42.2019 46.2639 42.3275 46.0449 42.3912C39.6485 44.1874 32.987 44.8498 26.3621 44.3485C18.185 43.6779 10.2239 41.3822 2.94517 37.5959C2.64426 37.4351 2.30849 37.3506 1.9673 37.3497C1.63586 37.3482 1.30949 37.4311 1.01902 37.5908C0.728537 37.7504 0.483528 37.9814 0.30712 38.262C0.161355 38.4944 0.0648391 38.7543 0.0235447 39.0255C-0.0177497 39.2967 -0.00294397 39.5735 0.0670456 39.8388C0.131459 40.0911 0.247781 40.3272 0.408583 40.532C0.569384 40.7368 0.77113 40.9058 1.00093 41.0282C8.74367 45.2036 17.2861 47.684 26.061 48.3049C39.8958 48.9848 51.2962 46.2603 59.9375 40.1885C61.5199 39.1347 62.8461 37.7398 63.8185 36.1062C64.791 34.4725 65.3851 32.6418 65.5571 30.7484C65.5849 30.4088 65.5985 30.0695 65.598 29.7304C65.5943 26.4113 64.2742 23.2293 61.9273 20.8823C59.5804 18.5354 56.3983 17.2152 53.0792 17.2115H53.0793ZM57.873 36.811C56.462 37.7776 54.7896 38.2908 53.0793 38.2821C51.0243 38.2843 49.0368 37.5486 47.4786 36.2088C45.9203 34.8691 44.8949 33.0144 44.589 30.9823C44.2831 28.9502 44.717 26.8758 45.8117 25.1367C46.9065 23.3976 48.5893 22.1093 50.5539 21.5064C52.5184 20.9036 54.6342 21.0261 56.516 21.8518C58.3978 22.6775 59.9206 24.1515 60.8072 26.0054C61.6938 27.8593 61.8853 29.9699 61.3467 31.9531C60.8082 33.9362 59.5755 35.6601 57.873 36.811V36.811Z" fill="black"></path>
</g>
<defs>
<clipPath id="clip0_120_775">
<rect width="65.5993" height="48.4068" fill="white"></rect>
</clipPath>
</defs>
</svg>