<svg width="55" height="66" viewBox="0 0 55 66" fill="none" xmlns="http://www.w3.org/2000/svg">
<g clip-path="url(#clip0_120_774)">
<path d="M22.4695 3.95172C22.7953 3.95166 23.1209 3.96814 23.445 4.00112C25.896 4.32143 28.1442 5.5298 29.7637 7.39718C31.3831 9.26456 32.2612 11.6612 32.2314 14.1328L32.2453 48.7057C32.2712 50.676 31.9595 52.6361 31.3238 54.5012C30.5655 56.1608 29.4808 57.6507 28.1343 58.882C26.7879 60.1134 25.2073 61.061 23.4867 61.6683C23.0618 61.7847 22.6856 62.0347 22.4138 62.3813C22.1419 62.7279 21.9888 63.1529 21.977 63.5932C21.9764 63.9037 22.0482 64.2101 22.1868 64.488C22.3253 64.7659 22.5268 65.0076 22.7751 65.194C23.0154 65.3783 23.2954 65.5041 23.5929 65.5613C23.8903 65.6185 24.197 65.6055 24.4885 65.5235C28.4274 64.3538 31.7989 61.7773 33.9618 58.2838C34.0431 58.128 34.158 57.9921 34.2982 57.8861C34.4384 57.7801 34.6005 57.7066 34.7726 57.6709C34.9447 57.6353 35.1226 57.6383 35.2934 57.6798C35.4642 57.7214 35.6237 57.8003 35.7602 57.9111C37.9015 59.6126 40.5613 60.529 43.2962 60.5074C49.3967 60.5074 54.361 56.1968 54.361 50.8975C54.361 45.6067 49.3765 41.3023 43.2483 41.3023C41.3948 41.2904 39.5636 41.7075 37.8981 42.521C37.7174 42.6114 37.5165 42.6541 37.3147 42.645C37.1128 42.636 36.9166 42.5754 36.7447 42.4691C36.5729 42.3629 36.4311 42.2144 36.3327 42.0379C36.2344 41.8613 36.1829 41.6626 36.1831 41.4605V14.2702C36.2343 10.7511 34.9675 7.34007 32.6315 4.70761C30.2956 2.07515 27.0594 0.411614 23.5592 0.0439915C21.2744 -0.139608 18.9801 0.253405 16.8867 1.18698C14.7932 2.12056 12.9677 3.56482 11.5775 5.3873C11.4622 5.52385 11.3185 5.6336 11.1564 5.70889C10.9943 5.78417 10.8177 5.82318 10.639 5.82318C10.4603 5.82318 10.2837 5.78417 10.1216 5.70889C9.95948 5.6336 9.81576 5.52385 9.70045 5.3873C7.86991 3.01402 5.32213 1.2951 2.43612 0.486245C2.14926 0.405253 1.84743 0.392455 1.55474 0.448874C1.26205 0.505293 0.986607 0.629366 0.750403 0.811185C0.516499 0.98779 0.326932 1.21643 0.196719 1.47901C0.0665065 1.74158 -0.000774972 2.03087 0.000203946 2.32395C-0.00622165 2.77928 0.139351 3.22375 0.413893 3.58706C0.688436 3.95036 1.07627 4.21176 1.51606 4.3299C3.55375 4.92307 5.3448 6.15967 6.62159 7.85491C7.89838 9.55015 8.59235 11.613 8.5998 13.7353V42.504C8.60128 43.0439 8.81677 43.5611 9.19903 43.9423C9.58128 44.3236 10.0991 44.5376 10.639 44.5376C11.1788 44.5376 11.6966 44.3236 12.0789 43.9423C12.4611 43.5611 12.6766 43.0439 12.6781 42.504V13.7353C12.6793 11.1395 13.7115 8.65056 15.5477 6.81582C17.3839 4.98108 19.8737 3.95084 22.4694 3.95172H22.4695ZM43.2962 56.5558C39.3738 56.5558 36.1831 54.0173 36.1831 50.8976C36.23 50.0232 36.4891 49.1733 36.9379 48.4215C37.3868 47.6697 38.012 47.0384 38.7595 46.5823C40.0888 45.6997 41.6528 45.2369 43.2484 45.254C47.1522 45.254 50.4093 47.8381 50.4093 50.8976C50.4093 54.0173 47.2186 56.5558 43.2962 56.5558Z" fill="black"></path>
</g>
<defs>
<clipPath id="clip0_120_774">
<rect width="54.361" height="65.5963" fill="white"></rect>
</clipPath>
</defs>
</svg>