<svg width="76" height="76" viewBox="0 0 76 76" fill="none" xmlns="http://www.w3.org/2000/svg">
<path d="M60.1666 28.5C60.1666 22.6211 57.8312 16.9829 53.6742 12.8258C49.5171 8.66878 43.8789 6.33337 38 6.33337C32.121 6.33337 26.4828 8.66878 22.3258 12.8258C18.1687 16.9829 15.8333 22.6211 15.8333 28.5C15.8333 29.3399 16.1669 30.1453 16.7608 30.7392C17.3547 31.3331 18.1601 31.6667 19 31.6667C19.8398 31.6667 20.6453 31.3331 21.2392 30.7392C21.833 30.1453 22.1666 29.3399 22.1666 28.5C22.1666 25.3685 23.0953 22.3073 24.835 19.7035C26.5748 17.0997 29.0477 15.0703 31.9408 13.8719C34.834 12.6736 38.0175 12.36 41.0889 12.9709C44.1603 13.5819 46.9815 15.0899 49.1958 17.3042C51.4102 19.5185 52.9181 22.3397 53.5291 25.4111C54.14 28.4825 53.8265 31.666 52.6281 34.5592C51.4297 37.4524 49.4003 39.9252 46.7965 41.665C44.1927 43.4048 41.1315 44.3334 38 44.3334C37.1601 44.3334 36.3547 44.667 35.7608 45.2609C35.1669 45.8547 34.8333 46.6602 34.8333 47.5V53.8334H31.6666C30.8268 53.8334 30.0213 54.167 29.4275 54.7609C28.8336 55.3547 28.5 56.1602 28.5 57C28.5 57.8399 28.8336 58.6454 29.4275 59.2392C30.0213 59.8331 30.8268 60.1667 31.6666 60.1667H34.8333V66.5C34.8333 67.3399 35.1669 68.1454 35.7608 68.7392C36.3547 69.3331 37.1601 69.6667 38 69.6667C38.8398 69.6667 39.6453 69.3331 40.2391 68.7392C40.833 68.1454 41.1666 67.3399 41.1666 66.5V60.1667H44.3333C45.1732 60.1667 45.9786 59.8331 46.5725 59.2392C47.1663 58.6454 47.5 57.8399 47.5 57C47.5 56.1602 47.1663 55.3547 46.5725 54.7609C45.9786 54.167 45.1732 53.8334 44.3333 53.8334H41.1666V50.4134C46.4379 49.6525 51.259 47.0193 54.7479 42.9954C58.2369 38.9715 60.1604 33.8259 60.1666 28.5V28.5Z" fill="black"></path>
</svg>