<svg width="76" height="76" viewBox="0 0 76 76" fill="none" xmlns="http://www.w3.org/2000/svg">
<path d="M45.7564 37.3901C46.2939 37.9093 47.0138 38.1965 47.7611 38.19C48.5084 38.1835 49.2232 37.8838 49.7516 37.3554C50.28 36.827 50.5797 36.1122 50.5862 35.3649C50.5927 34.6177 50.3054 33.8977 49.7863 33.3602L38.8632 22.4371L49.7863 11.5159C50.3209 10.9815 50.6214 10.2566 50.6216 9.50069C50.6218 8.74476 50.3216 8.01972 49.7872 7.48507C49.2529 6.95042 48.5279 6.64996 47.772 6.64978C47.0161 6.6496 46.291 6.94972 45.7564 7.48412L37.6833 15.5572V9.50002C37.6833 8.74415 37.383 8.01925 36.8486 7.48477C36.3141 6.95029 35.5892 6.65002 34.8333 6.65002C34.0774 6.65002 33.3525 6.95029 32.818 7.48477C32.2836 8.01925 31.9833 8.74415 31.9833 9.50002V47.4126C24.5391 48.3303 19.0462 52.7725 19.0462 58.2901C19.0462 64.4917 25.9812 69.35 34.8333 69.35C43.6854 69.35 50.6204 64.4917 50.6204 58.2901C50.6204 52.7801 45.1275 48.3303 37.6833 47.4126V29.317L45.7564 37.3901ZM44.9204 58.2901C44.9204 60.8209 40.6074 63.65 34.8333 63.65C29.0592 63.65 24.7462 60.8209 24.7462 58.2901C24.7462 55.7593 29.0592 52.9302 34.8333 52.9302C40.6074 52.9302 44.9204 55.7612 44.9204 58.2901V58.2901Z" fill="black"></path>
</svg>