<svg width="76" height="76" viewBox="0 0 76 76" fill="none" xmlns="http://www.w3.org/2000/svg">
<path d="M38 6.65002C29.6849 6.65002 21.7102 9.95428 15.8323 15.8323C9.9545 21.7104 6.65002 29.6849 6.65002 38C6.65002 46.3152 9.95428 54.2899 15.8323 60.1677C21.7104 66.0455 29.6849 69.35 38 69.35C46.3152 69.35 54.2899 66.0458 60.1677 60.1677C66.0455 54.2896 69.35 46.3152 69.35 38C69.3411 29.6871 66.0339 21.7193 60.1555 15.8445C54.2804 9.96636 46.3121 6.65914 38 6.65002V6.65002ZM63.4836 35.15H40.85V12.5165C46.6272 13.1726 52.0129 15.7672 56.1215 19.879C60.2332 23.9877 62.8279 29.3729 63.484 35.1504L63.4836 35.15ZM35.15 12.5165V35.15H12.5165C13.1726 29.3728 15.7672 23.9871 19.879 19.8786C23.9877 15.7668 29.3729 13.1722 35.1504 12.5161L35.15 12.5165ZM12.5165 40.85H35.15V63.4836C29.3728 62.8275 23.9871 60.2328 19.8786 56.1211C15.7668 52.0124 13.1722 46.6272 12.5161 40.8496L12.5165 40.85ZM40.85 63.4836V40.85H63.4836C62.8275 46.6272 60.2328 52.0129 56.1211 56.1215C52.0124 60.2332 46.6272 62.8279 40.8496 63.484L40.85 63.4836Z" fill="black"></path>
</svg>