<svg width="76" height="76" viewBox="0 0 76 76" fill="none" xmlns="http://www.w3.org/2000/svg">
<path d="M57 22.1666H46.2016L54.1816 14.8833C54.5182 14.613 54.7959 14.2768 54.9978 13.8953C55.1997 13.5138 55.3214 13.0951 55.3556 12.6648C55.3897 12.2345 55.3356 11.8018 55.1964 11.3932C55.0572 10.9846 54.836 10.6088 54.5463 10.2889C54.2566 9.96888 53.9045 9.71152 53.5118 9.53256C53.119 9.35361 52.6938 9.25684 52.2622 9.24821C51.8307 9.23957 51.4019 9.31925 51.0023 9.48235C50.6026 9.64545 50.2406 9.88852 49.9383 10.1966L41.1666 18.1766V9.49998C41.1666 8.66013 40.833 7.85467 40.2391 7.26081C39.6453 6.66694 38.8398 6.33331 38 6.33331C37.1601 6.33331 36.3547 6.66694 35.7608 7.26081C35.1669 7.85467 34.8333 8.66013 34.8333 9.49998V18.1766L26.0616 10.1966C25.4321 9.69108 24.6332 9.4451 23.8283 9.50898C23.0234 9.57286 22.2733 9.94179 21.7314 10.5403C21.1895 11.1389 20.8967 11.9218 20.9128 12.7291C20.929 13.5363 21.2529 14.3069 21.8183 14.8833L29.7983 22.1666H19C18.1601 22.1666 17.3547 22.5003 16.7608 23.0941C16.1669 23.688 15.8333 24.4935 15.8333 25.3333C15.8333 26.1732 16.1669 26.9786 16.7608 27.5725C17.3547 28.1663 18.1601 28.5 19 28.5H29.7983L21.8183 35.7833C21.3891 36.22 21.0958 36.7718 20.9737 37.3718C20.8517 37.9719 20.9062 38.5944 21.1307 39.1641C21.3553 39.7337 21.7401 40.2261 22.2387 40.5815C22.7373 40.9369 23.3282 41.1402 23.94 41.1666C24.7248 41.1646 25.4809 40.8712 26.0616 40.3433L34.8333 32.49V53.8333H31.6666C30.8268 53.8333 30.0213 54.1669 29.4275 54.7608C28.8336 55.3547 28.5 56.1601 28.5 57C28.5 57.8398 28.8336 58.6453 29.4275 59.2392C30.0213 59.833 30.8268 60.1666 31.6666 60.1666H34.8333V66.5C34.8333 67.3398 35.1669 68.1453 35.7608 68.7392C36.3547 69.333 37.1601 69.6666 38 69.6666C38.8398 69.6666 39.6453 69.333 40.2391 68.7392C40.833 68.1453 41.1666 67.3398 41.1666 66.5V60.1666H44.3333C45.1732 60.1666 45.9786 59.833 46.5725 59.2392C47.1663 58.6453 47.5 57.8398 47.5 57C47.5 56.1601 47.1663 55.3547 46.5725 54.7608C45.9786 54.1669 45.1732 53.8333 44.3333 53.8333H41.1666V32.49L49.9383 40.47C50.5191 40.9979 51.2752 41.2913 52.06 41.2933C52.6984 41.2917 53.3215 41.097 53.8474 40.735C54.3733 40.3729 54.7775 39.8604 55.0069 39.2646C55.2363 38.6687 55.2803 38.0175 55.133 37.3962C54.9857 36.775 54.6541 36.2128 54.1816 35.7833L46.2016 28.5H57C57.8398 28.5 58.6453 28.1663 59.2392 27.5725C59.833 26.9786 60.1666 26.1732 60.1666 25.3333C60.1666 24.4935 59.833 23.688 59.2392 23.0941C58.6453 22.5003 57.8398 22.1666 57 22.1666Z" fill="black"></path>
</svg>