<svg width="76" height="76" viewBox="0 0 76 76" fill="none" xmlns="http://www.w3.org/2000/svg">
<path fill-rule="evenodd" clip-rule="evenodd" d="M60.1677 50.6677V6.34145C60.1677 4.58692 61.572 3.16785 63.3324 3.16785C65.081 3.16785 66.5001 4.5572 66.5001 6.34145V69.6586C66.5001 71.4131 65.0959 72.8322 63.3324 72.8322C61.5838 72.8322 60.1677 71.4428 60.1677 69.6586V57H12.6677C10.9191 57 9.50002 55.5958 9.50002 53.8323C9.50002 52.0837 10.9398 50.6676 12.6677 50.6676H28.5C35.4944 50.6676 41.1677 44.9944 41.1677 37.9999C41.1677 31.0055 35.4945 25.3323 28.5 25.3323C21.5056 25.3323 15.8323 31.0055 15.8323 37.9999C15.8323 39.7485 14.4162 41.1676 12.6676 41.1676C10.919 41.1676 9.49994 39.7485 9.49994 37.9999C9.49994 27.5051 18.0051 18.9999 28.4999 18.9999C38.9948 18.9999 47.5 27.5051 47.5 37.9999C47.5 42.8657 45.6712 47.3039 42.6609 50.6676L60.1677 50.6677Z" fill="black"></path>
</svg>