<svg width="57" height="66" viewBox="0 0 57 66" fill="none" xmlns="http://www.w3.org/2000/svg">
<g clip-path="url(#clip0_120_783)">
<path d="M32.1632 3.94314C32.7012 3.94343 33.2387 3.97435 33.7731 4.03576C35.7062 4.26003 37.5687 4.89594 39.2353 5.90065C40.9019 6.90536 42.3338 8.25554 43.4346 9.86024C44.5355 11.465 45.2797 13.2869 45.6171 15.2035C45.9545 17.12 45.8772 19.0866 45.3906 20.9708L34.8984 50.7025C34.0097 53.1727 34.0151 55.8764 34.9138 58.3431C35.8124 60.8098 37.5474 62.8833 39.8169 64.2031C41.2699 64.9924 42.8766 65.4578 44.5266 65.5672C46.1766 65.6766 47.8307 65.4274 49.3752 64.8368C50.9197 64.2462 52.318 63.3281 53.474 62.1457C54.63 60.9633 55.5163 59.5447 56.0719 57.9872C56.1786 57.6968 56.2125 57.3847 56.1705 57.0782C56.1285 56.7717 56.012 56.4801 55.8311 56.2291C55.6357 55.9485 55.3754 55.7192 55.0725 55.5607C54.7695 55.4021 54.4327 55.319 54.0908 55.3184C53.6987 55.3345 53.3214 55.4728 53.0118 55.7138C52.7021 55.9549 52.4755 56.2867 52.3636 56.6628C51.8352 58.1169 50.8733 59.3739 49.6079 60.2641C48.3425 61.1543 46.8344 61.6348 45.2872 61.6407C44.0357 61.6463 42.803 61.3362 41.7031 60.7393C40.2497 59.8688 39.1471 58.5168 38.5868 56.918C38.0265 55.3192 38.0439 53.5747 38.6361 51.9874C49.1376 22.2217 49.1376 22.2217 49.1499 22.1916C49.8369 19.8965 49.99 17.4747 49.5975 15.1114C48.9745 10.708 46.7051 6.70469 43.247 3.90845C39.7889 1.11221 35.3992 -0.268948 30.963 0.043437C26.5268 0.355822 22.374 2.33852 19.3418 5.59178C16.3097 8.84505 14.6238 13.1269 14.6239 17.5741C14.6227 19.0772 14.8168 20.5741 15.2012 22.0272L16.8026 26.62C16.8729 26.8218 16.8872 27.0389 16.8442 27.2482C16.8011 27.4576 16.7023 27.6514 16.5581 27.8092C16.4139 27.9669 16.2298 28.0828 16.0252 28.1445C15.8206 28.2062 15.6031 28.2114 15.3957 28.1597C14.4552 27.9287 13.49 27.8133 12.5216 27.8162C10.8515 27.8188 9.19868 28.1549 7.66022 28.8049C6.12176 29.4549 4.72863 30.4056 3.56258 31.6013C2.39653 32.797 1.48106 34.2135 0.869884 35.7678C0.258708 37.3221 -0.0358555 38.9828 0.00347882 40.6525C0.0324277 41.5221 0.148258 42.3867 0.349242 43.2333C0.794682 44.9747 1.60608 46.6012 2.72938 48.0045C3.85268 49.4078 5.2621 50.5557 6.86376 51.3716C8.40432 52.1899 10.1015 52.6708 11.8424 52.782C13.5833 52.8932 15.3279 52.6324 16.9601 52.0168C19.9677 50.7583 22.3896 48.411 23.7414 45.4441C25.0933 42.4773 25.2755 39.1095 24.2518 36.0141L19.0207 20.9985C18.7267 19.8808 18.5771 18.73 18.5754 17.5742C18.5796 15.6563 18.9869 13.7607 19.7708 12.0104C20.5547 10.2601 21.6977 8.694 23.1257 7.4138C25.6028 5.17489 28.8243 3.93774 32.1632 3.94314V3.94314ZM12.5216 48.8857C10.8282 48.8872 9.17231 48.3864 7.76361 47.4465C6.35492 46.5066 5.2567 45.1699 4.60794 43.6057C3.95917 42.0414 3.78903 40.3199 4.11903 38.6589C4.44903 36.9979 5.26435 35.4721 6.46181 34.2747C7.65927 33.0772 9.18504 32.2619 10.846 31.9319C12.507 31.6019 14.2286 31.772 15.7929 32.4208C17.3571 33.0696 18.6938 34.1678 19.6336 35.5765C20.5735 36.9852 21.0744 38.641 21.0729 40.3345C21.0684 42.601 20.166 44.7735 18.5633 46.3762C16.9606 47.9789 14.7882 48.8812 12.5216 48.8857Z" fill="black"></path>
</g>
<defs>
<clipPath id="clip0_120_783">
<rect width="56.188" height="65.5923" fill="white"></rect>
</clipPath>
</defs>
</svg>