<svg width="66" height="51" viewBox="0 0 66 51" fill="none" xmlns="http://www.w3.org/2000/svg">
<g clip-path="url(#clip0_120_771)">
<path d="M65.6037 48.6029C65.6032 49.1268 65.3948 49.6291 65.0244 49.9995C64.654 50.37 64.1517 50.5783 63.6278 50.5788H1.98132C1.72139 50.5795 1.46387 50.5289 1.22352 50.4299C0.983167 50.331 0.764705 50.1855 0.58065 50.002C0.396595 49.8185 0.250566 49.6004 0.150927 49.3603C0.0512888 49.1203 0 48.8629 0 48.6029C0 48.343 0.0512888 48.0856 0.150927 47.8456C0.250566 47.6055 0.396595 47.3874 0.58065 47.2039C0.764705 47.0203 0.983167 46.8749 1.22352 46.7759C1.46387 46.677 1.72139 46.6264 1.98132 46.6271H63.6278C64.1517 46.6276 64.654 46.8359 65.0244 47.2064C65.3948 47.5768 65.6032 48.0791 65.6037 48.6029V48.6029ZM1.98132 37.9334H23.3206C23.8446 37.9334 24.3472 37.7252 24.7177 37.3547C25.0883 36.9841 25.2964 36.4816 25.2964 35.9575C25.2964 35.4335 25.0883 34.9309 24.7177 34.5604C24.3472 34.1898 23.8446 33.9816 23.3206 33.9816H21.1394C20.9815 33.9817 20.8252 33.9502 20.6796 33.889C20.5341 33.8278 20.4022 33.738 20.2919 33.6251C17.8901 31.1635 16.2679 28.0481 15.6281 24.6689C14.9883 21.2898 15.3595 17.797 16.6952 14.6277C18.0309 11.4585 20.2717 8.75364 23.1371 6.85174C26.0026 4.94984 29.3654 3.9354 32.8046 3.9354C36.2438 3.9354 39.6066 4.94984 42.472 6.85174C45.3375 8.75364 47.5783 11.4585 48.9139 14.6277C50.2496 17.797 50.6208 21.2898 49.981 24.6689C49.3413 28.0481 47.719 31.1635 45.3173 33.6251C45.2069 33.738 45.0751 33.8278 44.9295 33.889C44.784 33.9502 44.6277 33.9817 44.4698 33.9816H42.2886C41.7646 33.9816 41.262 34.1898 40.8915 34.5604C40.5209 34.9309 40.3128 35.4335 40.3128 35.9575C40.3128 36.4816 40.5209 36.9841 40.8915 37.3547C41.262 37.7252 41.7646 37.9334 42.2886 37.9334H63.6279C63.9007 37.9339 64.1707 37.8778 64.4207 37.7687C64.6708 37.6596 64.8955 37.4999 65.0807 37.2996C65.266 37.0993 65.4077 36.8627 65.4969 36.6049C65.5861 36.3471 65.6209 36.0736 65.599 35.8016C65.5352 35.2908 65.2841 34.8218 64.8942 34.4856C64.5044 34.1493 64.0036 33.9698 63.489 33.9816H52.3577C52.1491 33.9815 51.9441 33.9263 51.7636 33.8217C51.5831 33.7171 51.4334 33.5666 51.3296 33.3856C51.2258 33.2046 51.1715 32.9995 51.1724 32.7908C51.1732 32.5822 51.2291 32.3774 51.3343 32.1973C53.2538 28.9084 54.2565 25.1651 54.2379 21.3571C54.1652 15.8916 52.0286 10.6556 48.2567 6.6996C44.4848 2.74358 39.3565 0.360086 33.9006 0.0272401C30.046 -0.167192 26.2104 0.682022 22.7981 2.48535C19.3859 4.28867 16.5234 6.97929 14.5126 10.2735C12.5017 13.5677 11.4169 17.3435 11.3726 21.2027C11.3284 25.0619 12.3262 28.8616 14.2609 32.2011C14.3658 32.3812 14.4212 32.5858 14.4217 32.7941C14.4222 33.0025 14.3677 33.2074 14.2637 33.388C14.1598 33.5686 14.01 33.7185 13.8296 33.8228C13.6491 33.927 13.4444 33.9818 13.236 33.9816H1.98132C1.45904 33.9873 0.959749 34.1973 0.590428 34.5667C0.221106 34.936 0.0111315 35.4353 0.0054903 35.9576C0.00598712 36.4815 0.214315 36.9837 0.584749 37.3542C0.955182 37.7246 1.45745 37.9329 1.98132 37.9334V37.9334Z" fill="black"></path>
</g>
<defs>
<clipPath id="clip0_120_771">
<rect width="65.6054" height="50.5788" fill="white"></rect>
</clipPath>
</defs>
</svg>