<svg width="76" height="76" viewBox="0 0 76 76" fill="none" xmlns="http://www.w3.org/2000/svg">
<path d="M53.2007 45.4479C44.7647 43.0159 38.8367 35.1879 38.8367 26.4479C38.8367 17.7079 44.7647 9.80393 53.2007 7.44793C54.1887 7.14393 54.8727 6.30793 54.8727 5.24393C54.8727 4.17993 54.1887 3.26793 53.2007 3.03993C50.9967 2.43193 48.7927 2.12793 46.5127 2.12793C33.0607 2.12793 22.1167 13.0719 22.1167 26.5239C22.1167 36.0999 27.6647 44.3839 35.6447 48.3359V56.2399H23.5607C22.2687 56.2399 21.2807 57.2279 21.2807 58.5199C21.2807 59.8119 22.2687 60.7999 23.5607 60.7999H35.7207V72.1999C35.7207 73.4919 36.7087 74.4799 38.0007 74.4799C39.2927 74.4799 40.2807 73.4919 40.2807 72.1999V60.7999H51.6807C52.9727 60.7999 53.9607 59.8119 53.9607 58.5199C53.9607 57.2279 52.9727 56.2399 51.6807 56.2399H40.2807V50.0079C42.2567 50.5399 44.3847 50.8439 46.5127 50.8439C48.7927 50.8439 50.9967 50.5399 53.2007 49.9319C54.1887 49.6279 54.8727 48.7919 54.8727 47.7279C54.8727 46.6639 54.1887 45.7519 53.2007 45.4479ZM26.7527 26.4479C26.7527 16.2639 34.5047 7.82793 44.3847 6.76393C38.2287 11.2479 34.3527 18.5439 34.3527 26.4479C34.3527 34.3519 38.2287 41.6479 44.3847 46.1319C34.4287 44.9919 26.7527 36.6319 26.7527 26.4479Z" fill="black"></path>
</svg>