<svg width="76" height="76" viewBox="0 0 76 76" fill="none" xmlns="http://www.w3.org/2000/svg">
<path d="M69.4133 8.29665C69.092 7.52287 68.4771 6.90798 67.7033 6.58665C67.3226 6.42438 66.9138 6.33832 66.5 6.33331H50.6667C49.8268 6.33331 49.0214 6.66694 48.4275 7.26081C47.8336 7.85467 47.5 8.66013 47.5 9.49998C47.5 10.3398 47.8336 11.1453 48.4275 11.7392C49.0214 12.333 49.8268 12.6666 50.6667 12.6666H58.8683L47.1833 24.3516C42.7578 20.8779 37.2927 18.993 31.6667 19C26.6562 19 21.7583 20.4858 17.5922 23.2694C13.4262 26.0531 10.1791 30.0096 8.26171 34.6387C6.34429 39.2677 5.8426 44.3614 6.8201 49.2756C7.79759 54.1898 10.2104 58.7038 13.7533 62.2467C17.2962 65.7896 21.8102 68.2024 26.7244 69.1799C31.6386 70.1574 36.7322 69.6557 41.3613 67.7383C45.9904 65.8208 49.9469 62.5738 52.7306 58.4078C55.5142 54.2417 57 49.3438 57 44.3333C57.007 38.7072 55.1221 33.2422 51.6483 28.8166L63.3333 17.1316V25.3333C63.3333 26.1732 63.667 26.9786 64.2608 27.5725C64.8547 28.1664 65.6601 28.5 66.5 28.5C67.3399 28.5 68.1453 28.1664 68.7392 27.5725C69.333 26.9786 69.6667 26.1732 69.6667 25.3333V9.49998C69.6617 9.08617 69.5756 8.67735 69.4133 8.29665ZM31.6667 63.3333C27.9088 63.3333 24.2354 62.219 21.1108 60.1312C17.9863 58.0435 15.551 55.0761 14.1129 51.6043C12.6749 48.1325 12.2986 44.3122 13.0317 40.6266C13.7649 36.941 15.5744 33.5555 18.2316 30.8983C20.8888 28.2411 24.2743 26.4315 27.9599 25.6984C31.6456 24.9653 35.4659 25.3415 38.9376 26.7796C42.4094 28.2177 45.3768 30.6529 47.4646 33.7775C49.5523 36.902 50.6667 40.5755 50.6667 44.3333C50.6667 49.3724 48.6649 54.2052 45.1017 57.7683C41.5385 61.3315 36.7058 63.3333 31.6667 63.3333V63.3333Z" fill="black"></path>
</svg>