<svg width="76" height="76" viewBox="0 0 76 76" fill="none" xmlns="http://www.w3.org/2000/svg">
<path d="M60.1667 28.5C60.1491 23.8048 58.6411 19.2364 55.86 15.4533L59.3433 11.6217C59.6515 11.3194 59.8945 10.9573 60.0576 10.5577C60.2207 10.1581 60.3004 9.72932 60.2918 9.29777C60.2831 8.86623 60.1864 8.44101 60.0074 8.04822C59.8285 7.65543 59.5711 7.30338 59.2511 7.01368C58.9312 6.72398 58.5553 6.50275 58.1468 6.36358C57.7382 6.22441 57.3055 6.17023 56.8752 6.20439C56.4449 6.23854 56.0262 6.36029 55.6447 6.56217C55.2631 6.76405 54.9269 7.04179 54.6567 7.37833L51.49 10.925C47.6481 7.94636 42.9247 6.32983 38.0633 6.32983C33.202 6.32983 28.4786 7.94636 24.6367 10.925L21.47 7.37833C20.9073 6.74005 20.1141 6.35143 19.2649 6.29799C18.4156 6.24454 17.58 6.53063 16.9417 7.09334C16.3034 7.65604 15.9148 8.44925 15.8613 9.29848C15.8079 10.1477 16.094 10.9834 16.6567 11.6217L20.1083 15.4533C17.8974 18.5384 16.5156 22.1395 16.0954 25.9117C15.6751 29.6839 16.2306 33.5008 17.7084 36.9968C19.1863 40.4928 21.5371 43.5508 24.5356 45.8778C27.5341 48.2048 31.0799 49.7229 34.8333 50.2867V53.8333H31.6667C30.8268 53.8333 30.0214 54.167 29.4275 54.7608C28.8336 55.3547 28.5 56.1601 28.5 57C28.5 57.8399 28.8336 58.6453 29.4275 59.2392C30.0214 59.833 30.8268 60.1667 31.6667 60.1667H34.8333V66.5C34.8333 67.3399 35.167 68.1453 35.7608 68.7392C36.3547 69.333 37.1601 69.6667 38 69.6667C38.8399 69.6667 39.6453 69.333 40.2392 68.7392C40.833 68.1453 41.1667 67.3399 41.1667 66.5V60.1667H44.3333C45.1732 60.1667 45.9786 59.833 46.5725 59.2392C47.1664 58.6453 47.5 57.8399 47.5 57C47.5 56.1601 47.1664 55.3547 46.5725 54.7608C45.9786 54.167 45.1732 53.8333 44.3333 53.8333H41.1667V50.4133C46.4379 49.6525 51.259 47.0193 54.7479 42.9953C58.2369 38.9714 60.1604 33.8258 60.1667 28.5V28.5ZM22.1667 28.5C22.1667 25.3685 23.0953 22.3072 24.8351 19.7035C26.5749 17.0997 29.0477 15.0703 31.9408 13.8719C34.834 12.6735 38.0176 12.36 41.0889 12.9709C44.1603 13.5818 46.9815 15.0898 49.1959 17.3041C51.4102 19.5185 52.9182 22.3397 53.5291 25.4111C54.14 28.4824 53.8265 31.666 52.6281 34.5592C51.4297 37.4523 49.4003 39.9251 46.7965 41.6649C44.1928 43.4047 41.1315 44.3333 38 44.3333C33.8007 44.3333 29.7735 42.6652 26.8041 39.6959C23.8348 36.7265 22.1667 32.6993 22.1667 28.5V28.5Z" fill="black"></path>
</svg>