<svg width="76" height="76" viewBox="0 0 76 76" fill="none" xmlns="http://www.w3.org/2000/svg">
<g clip-path="url(#clip0_120_798)">
<path d="M17.07 14.2768C16.4897 14.7804 16.1122 15.4779 16.0081 16.2393C15.9039 17.0006 16.0801 17.7739 16.5039 18.4149C16.9045 19.0542 17.5203 19.5295 18.2402 19.7552C18.9602 19.9808 19.737 19.942 20.4309 19.6457C23.365 18.4281 26.5762 18.0361 29.7171 18.5123C32.8579 18.9884 35.8087 20.3145 38.2501 22.3471C40.6915 24.3796 42.5305 27.0411 43.5681 30.0436C44.6056 33.0461 44.8022 36.2752 44.1366 39.3815C43.471 42.4877 41.9685 45.3527 39.7918 47.6664C37.615 49.9801 34.8469 51.6545 31.7871 52.5082C28.7272 53.3619 25.4921 53.3624 22.432 52.5098C19.3718 51.6572 16.6031 49.9838 14.4256 47.6709C13.9693 46.9658 13.2516 46.4708 12.4304 46.2948C11.6092 46.1188 10.7517 46.2763 10.0466 46.7325C9.3415 47.1888 8.84651 47.9065 8.67054 48.7277C8.49457 49.5489 8.65203 50.4064 9.10828 51.1115C9.77627 52.5292 10.5473 53.8961 11.4151 55.2011C14.8175 60.4594 19.7028 64.5906 25.4531 67.0724C31.2035 69.5543 37.5607 70.2752 43.7208 69.144C49.8808 68.0128 55.5671 65.0803 60.0606 60.7174C64.5541 56.3545 67.6529 50.7571 68.9652 44.6331C70.2774 38.509 69.7443 32.1334 67.4331 26.3123C65.1218 20.4913 61.1364 15.4864 55.9807 11.9304C50.825 8.37444 44.7306 6.42718 38.4682 6.33485C32.2058 6.24253 26.0567 8.00929 20.7984 11.4117C19.4872 12.2743 18.2411 13.2319 17.07 14.2768V14.2768ZM59.2705 24.2357C62.4316 29.1079 63.8226 34.9183 63.2105 40.6938C62.5985 46.4693 60.0206 51.8592 55.9085 55.9606C51.7964 60.0621 46.4 62.6261 40.6229 63.2232C34.8458 63.8203 29.039 62.4143 24.175 59.2406C30.0839 60.0011 36.0628 58.513 40.9258 55.0715C45.7889 51.63 49.181 46.4866 50.4293 40.6612C51.6776 34.8358 50.6909 28.754 47.6649 23.622C44.639 18.4901 39.7948 14.6828 34.0932 12.9553C38.9311 12.2014 43.8838 12.8656 48.3521 14.8675C52.8204 16.8695 56.6128 20.1234 59.2705 24.2357V24.2357Z" fill="black"></path>
</g>
<defs>
<clipPath id="clip0_120_798">
<rect width="76" height="76" fill="white"></rect>
</clipPath>
</defs>
</svg>