<svg width="76" height="76" viewBox="0 0 76 76" fill="none" xmlns="http://www.w3.org/2000/svg">
<path d="M68.515 18.6375L61.7611 11.8836C61.4939 11.6194 61.1763 11.4086 60.8289 11.2631L60.7814 11.2512V11.2483C60.4519 11.1176 60.1016 11.0494 59.7453 11.0494C59.392 11.0494 59.0387 11.1177 58.7092 11.2483L58.6647 11.2602V11.2631C58.3143 11.4056 57.9967 11.6194 57.7295 11.8836L50.9756 18.6375C49.8949 19.7538 49.9098 21.532 51.0082 22.6334C52.1096 23.7318 53.885 23.7467 55.0042 22.6661L56.9042 20.775V25.1687C56.9042 33.879 49.9246 41.099 40.8583 42.3728V20.7751L42.7583 22.6662C43.2897 23.2154 44.02 23.5301 44.783 23.536C45.5489 23.542 46.2822 23.2421 46.8255 22.7018C47.3658 22.1615 47.6657 21.4252 47.6598 20.6622C47.6508 19.8963 47.3391 19.169 46.7899 18.6375L40.0182 11.8836C39.751 11.6194 39.4333 11.4086 39.083 11.2632L39.0385 11.2513V11.2483C38.7089 11.1177 38.3557 11.0494 37.9994 11.0494C37.6431 11.0494 37.2928 11.1177 36.9633 11.2483L36.9188 11.2602L36.9158 11.2632C36.5684 11.4086 36.2508 11.6194 35.9836 11.8836L29.2297 18.6375C28.149 19.7538 28.1639 21.5321 29.2623 22.6335C30.3637 23.7319 32.1421 23.7467 33.2583 22.6661L35.1583 20.775V42.3696C26.0915 41.096 19.1124 33.8789 19.1124 25.1655V20.7748L21.0124 22.6659C22.1316 23.7465 23.9099 23.7316 25.0083 22.6332C26.1067 21.5318 26.1246 19.7535 25.0439 18.6373L18.2722 11.8834C18.005 11.6192 17.6873 11.4054 17.34 11.2629L17.2895 11.2481C16.96 11.1175 16.6067 11.0492 16.2534 11.0492C15.8971 11.0492 15.5468 11.1175 15.2173 11.2481L15.1698 11.26V11.2629C14.8224 11.4084 14.5048 11.6192 14.2376 11.8834L7.48368 18.6373C6.37043 19.7506 6.37043 21.5556 7.48368 22.6689C8.59693 23.7792 10.4019 23.7792 11.5153 22.6659L13.4034 20.7748V25.1685C13.4034 37.0108 22.927 46.7897 35.1493 48.1228V53.7842L30.7971 53.7871C29.2236 53.7871 27.9471 55.0637 27.9471 56.6371C27.9471 58.2106 29.2236 59.4871 30.7971 59.4871H35.1493V62.1026C35.1493 63.676 36.4258 64.9526 37.9993 64.9526C39.5727 64.9526 40.8493 63.676 40.8493 62.1026V59.4871H45.2015C46.7749 59.4871 48.0515 58.2106 48.0515 56.6371C48.0515 55.0637 46.7749 53.7871 45.2015 53.7871H40.8493V48.1258C53.0716 46.7958 62.5952 37.0138 62.5952 25.1715V20.7747L64.4833 22.6658C65.5965 23.7791 67.4015 23.7791 68.5149 22.6688C69.0492 22.1344 69.3491 21.4071 69.3491 20.6531C69.3491 19.896 69.0493 19.1717 68.5149 18.6373L68.515 18.6375Z" fill="black"></path>
</svg>