<svg width="76" height="76" viewBox="0 0 76 76" fill="none" xmlns="http://www.w3.org/2000/svg">
<g transform="scale(1,-1) translate(0,-76)">
<path d="M6.33332 58.615C6.33332 61.5545 7.50102 64.3736 9.57955 66.4521C11.6581 68.5306 14.4772 69.6983 17.4167 69.6983C20.3561 69.6983 23.1752 68.5306 25.2538 66.4521C27.3323 64.3736 28.5 61.5545 28.5 58.615C28.4913 57.6967 28.3744 56.7826 28.1517 55.8917C28.0163 55.3641 27.8471 54.8458 27.645 54.34C27.645 54.34 27.4866 54.0233 27.3916 53.8333L26.9167 52.915L26.5367 52.3767L25.9983 51.6167L25.555 51.11L24.89 50.445L24.3833 50.0333C24.1548 49.8258 23.9113 49.6353 23.655 49.4633L23.085 49.115C22.8217 48.9381 22.5466 48.7794 22.2617 48.64L21.6917 48.3867L20.6783 48.0383L20.1717 47.88L20.0133 47.88C17.2492 44.0958 15.783 39.5192 15.8333 34.8333C15.8333 28.9544 18.1687 23.3162 22.3258 19.1591C26.4828 15.0021 32.121 12.6667 38 12.6667C43.8789 12.6667 49.5171 15.0021 53.6742 19.1591C57.8312 23.3162 60.1666 28.9544 60.1666 34.8333C60.2033 39.4976 58.7377 44.0499 55.9866 47.8167V47.8167L55.48 47.975L54.4666 48.3233L53.8333 48.64L52.9783 49.115L52.44 49.4633C52.1509 49.6313 51.8756 49.8219 51.6166 50.0333L51.11 50.445L50.445 51.11L50.0016 51.6167L49.4316 52.3767C49.3268 52.5631 49.2105 52.7429 49.0833 52.915C48.9014 53.2083 48.7426 53.5153 48.6083 53.8333C48.5116 53.9848 48.4269 54.1436 48.355 54.3083C48.1529 54.8141 47.9837 55.3324 47.8483 55.86C47.6231 56.7612 47.5062 57.6861 47.5 58.615C47.4955 60.6142 48.0319 62.5775 49.0524 64.2967C50.0728 66.0159 51.5393 67.4271 53.2964 68.3808C55.0536 69.3345 57.036 69.7951 59.0336 69.7139C61.0312 69.6326 62.9696 69.0126 64.6435 67.9194C66.3175 66.8263 67.6645 65.3007 68.542 63.5043C69.4195 61.7079 69.7948 59.7076 69.628 57.7153C69.4613 55.723 68.7587 53.8129 67.5948 52.1874C66.4309 50.5618 64.849 49.2814 63.0166 48.4817C65.0972 44.6696 66.279 40.4324 66.4719 36.0938C66.6647 31.7552 65.8635 27.4299 64.1294 23.4483C62.3953 19.4666 59.7742 15.934 56.4663 13.12C53.1583 10.3061 49.2511 8.28536 45.0429 7.21214C40.8347 6.13893 36.4369 6.04164 32.1854 6.92768C27.9338 7.81372 23.941 9.65966 20.5119 12.3245C17.0827 14.9894 14.3079 18.4027 12.3994 22.3038C10.4909 26.2048 9.49921 30.4904 9.49998 34.8333C9.49664 39.593 10.6948 44.2766 12.9833 48.45C11.0033 49.3097 9.31834 50.7305 8.13657 52.537C6.95479 54.3434 6.32791 56.4564 6.33332 58.615V58.615ZM58.5833 63.3333C57.329 63.3334 56.1256 62.8373 55.2357 61.9533C54.3458 61.0693 53.8417 59.8693 53.8333 58.615C53.7911 58.215 53.7911 57.8117 53.8333 57.4117C54.0488 56.4879 54.5396 55.6513 55.2407 55.0124C55.9418 54.3735 56.8202 53.9623 57.76 53.8333L58.5833 53.8333C59.8431 53.8333 61.0513 54.3338 61.9421 55.2246C62.8329 56.1154 63.3333 57.3235 63.3333 58.5833C63.3333 59.8431 62.8329 61.0513 61.9421 61.9421C61.0513 62.8329 59.8431 63.3333 58.5833 63.3333V63.3333ZM17.4167 63.3333C16.1569 63.3333 14.9487 62.8329 14.0579 61.9421C13.1671 61.0513 12.6667 59.8431 12.6667 58.5833C12.6667 57.3235 13.1671 56.1154 14.0579 55.2246C14.9487 54.3338 16.1569 53.8333 17.4167 53.8333L17.955 53.8333C18.319 53.8776 18.6726 53.9847 19 54.15L19.4433 54.15C19.7503 54.2919 20.0377 54.4728 20.2983 54.6883C20.4255 54.7432 20.5431 54.818 20.6467 54.91C20.912 55.1546 21.146 55.4312 21.3433 55.7333L21.5333 55.955C21.7872 56.3682 21.9792 56.8162 22.1033 57.285V57.285C22.176 57.7244 22.1973 58.1707 22.1667 58.615C22.1583 59.8693 21.6542 61.0693 20.7643 61.9533C19.8744 62.8373 18.671 63.3334 17.4167 63.3333Z" fill="black"/>
</g>
</svg>
