<svg width="76" height="76" viewBox="0 0 76 76" fill="none" xmlns="http://www.w3.org/2000/svg">
<path d="M52.915 24.415C53.2118 24.1206 53.4474 23.7703 53.6082 23.3845C53.7689 22.9986 53.8517 22.5847 53.8517 22.1666C53.8517 21.7486 53.7689 21.3347 53.6082 20.9488C53.4474 20.5629 53.2118 20.2127 52.915 19.9183L40.2483 7.25164C39.954 6.95483 39.6037 6.71925 39.2178 6.55848C38.8319 6.39771 38.418 6.31494 38 6.31494C37.582 6.31494 37.1681 6.39771 36.7822 6.55848C36.3963 6.71925 36.0461 6.95483 35.7517 7.25164L23.085 19.9183C22.7882 20.2127 22.5526 20.5629 22.3919 20.9488C22.2311 21.3347 22.1483 21.7486 22.1483 22.1666C22.1483 22.5847 22.2311 22.9986 22.3919 23.3845C22.5526 23.7703 22.7882 24.1206 23.085 24.415L34.8333 36.1316V53.8333H28.5C27.6602 53.8333 26.8547 54.1669 26.2608 54.7608C25.667 55.3547 25.3333 56.1601 25.3333 57C25.3333 57.8398 25.667 58.6453 26.2608 59.2391C26.8547 59.833 27.6602 60.1666 28.5 60.1666H34.8333V66.5C34.8333 67.3398 35.167 68.1453 35.7608 68.7391C36.3547 69.333 37.1602 69.6666 38 69.6666C38.8399 69.6666 39.6453 69.333 40.2392 68.7391C40.833 68.1453 41.1667 67.3398 41.1667 66.5V60.1666H47.5C48.3399 60.1666 49.1453 59.833 49.7392 59.2391C50.333 58.6453 50.6667 57.8398 50.6667 57C50.6667 56.1601 50.333 55.3547 49.7392 54.7608C49.1453 54.1669 48.3399 53.8333 47.5 53.8333H41.1667V36.1316L52.915 24.415ZM38 13.965L46.2017 22.1666L38 30.3683L29.7983 22.1666L38 13.965Z" fill="black"></path>
</svg>