<svg width="43" height="66" viewBox="0 0 43 66" fill="none" xmlns="http://www.w3.org/2000/svg">
<g clip-path="url(#clip0_120_777)">
<path d="M41.7442 65.2013H41.7435C41.5269 65.3653 41.279 65.4832 41.0151 65.5478C40.7512 65.6124 40.4768 65.6223 40.209 65.5769C39.9411 65.5315 39.6854 65.4318 39.4575 65.2838C39.2296 65.1359 39.0344 64.9428 38.884 64.7166C33.1189 56.1579 29.7709 46.2019 29.1931 35.8989C29.1754 35.5971 29.043 35.3134 28.8231 35.106C28.6031 34.8985 28.3123 34.7829 28.0099 34.7829H14.5048C14.2025 34.7829 13.9116 34.8985 13.6917 35.106C13.4718 35.3134 13.3394 35.5971 13.3217 35.8989C12.7439 46.2019 9.39589 56.1579 3.63091 64.7166C3.48891 64.9339 3.30551 65.121 3.09118 65.2674C2.87684 65.4138 2.63578 65.5165 2.38174 65.5698C2.1277 65.623 1.86567 65.6256 1.6106 65.5776C1.35553 65.5296 1.11243 65.4317 0.895161 65.2897C0.677896 65.1477 0.490728 64.9643 0.344341 64.75C0.197955 64.5357 0.0952182 64.2946 0.0419968 64.0406C-0.0112247 63.7865 -0.0138879 63.5245 0.0341579 63.2694C0.0822038 63.0144 0.180018 62.7713 0.322017 62.554C5.6336 54.6778 8.74717 45.5268 9.3414 36.0455C9.35191 35.8837 9.32911 35.7214 9.2744 35.5687C9.2197 35.416 9.13426 35.2762 9.02337 35.1579C8.91247 35.0395 8.77848 34.9452 8.62967 34.8807C8.48086 34.8162 8.32041 34.7829 8.15822 34.7829H3.30055C2.77653 34.7829 2.27397 34.5747 1.90343 34.2041C1.53289 33.8336 1.32472 33.331 1.32472 32.807C1.32472 32.283 1.53289 31.7804 1.90343 31.4099C2.27397 31.0394 2.77653 30.8312 3.30055 30.8312H8.20539C8.36571 30.8311 8.52435 30.7985 8.67171 30.7354C8.81908 30.6722 8.95211 30.5799 9.06277 30.4639C9.17343 30.3479 9.25943 30.2106 9.31555 30.0604C9.37167 29.9103 9.39676 29.7503 9.3893 29.5901C8.98861 20.1546 6.11371 10.9904 1.05302 3.01677C0.781039 2.57104 0.696523 2.03578 0.817943 1.52793C0.939363 1.02008 1.25685 0.580929 1.70103 0.306424C2.14522 0.0319196 2.67999 -0.0556247 3.18852 0.0629184C3.69705 0.181462 4.13799 0.496455 4.41501 0.939079C9.89561 9.56239 12.9908 19.4851 13.385 29.695C13.398 30.0006 13.5285 30.2893 13.7492 30.501C13.9699 30.7127 14.2638 30.831 14.5696 30.8312H27.9451C28.2509 30.831 28.5449 30.7127 28.7656 30.501C28.9863 30.2893 29.1168 30.0006 29.1299 29.695C29.5239 19.4851 32.6191 9.56236 38.0998 0.939064C38.236 0.718012 38.4146 0.525989 38.6251 0.373973C38.8356 0.221956 39.0741 0.112928 39.3268 0.0531209C39.5795 -0.00668582 39.8415 -0.0160983 40.0978 0.0254221C40.3542 0.0669425 40.5998 0.158581 40.8207 0.295099C41.0416 0.431617 41.2335 0.610337 41.3852 0.82104C41.537 1.03174 41.6458 1.2703 41.7053 1.52307C41.7649 1.77583 41.774 2.03786 41.7322 2.29415C41.6904 2.55045 41.5985 2.796 41.4617 3.01676C36.4011 10.9904 33.5262 20.1546 33.1255 29.5901C33.118 29.7503 33.1431 29.9103 33.1993 30.0604C33.2554 30.2106 33.3414 30.3478 33.4521 30.4638C33.5627 30.5798 33.6958 30.6722 33.8431 30.7353C33.9905 30.7985 34.1492 30.8311 34.3095 30.8312H39.2142C39.7382 30.8312 40.2408 31.0393 40.6113 31.4099C40.9819 31.7804 41.19 32.283 41.19 32.807C41.19 33.331 40.9819 33.8336 40.6113 34.2041C40.2408 34.5747 39.7382 34.7828 39.2142 34.7828H34.3565C34.1943 34.7829 34.0339 34.8162 33.885 34.8807C33.7362 34.9452 33.6023 35.0395 33.4914 35.1578C33.3805 35.2762 33.295 35.416 33.2403 35.5687C33.1856 35.7214 33.1628 35.8837 33.1733 36.0455C33.7676 45.5268 36.8811 54.6777 42.1927 62.554C42.4683 62.9696 42.5754 63.4746 42.4921 63.9664C42.4088 64.4581 42.1414 64.8997 41.7442 65.2013V65.2013Z" fill="black"></path>
</g>
<defs>
<clipPath id="clip0_120_777">
<rect width="42.5197" height="65.6118" fill="white"></rect>
</clipPath>
</defs>
</svg>