<svg width="76" height="76" viewBox="0 0 76 76" fill="none" xmlns="http://www.w3.org/2000/svg">
<path d="M66.5 22.1667C66.5 21.3268 66.1664 20.5214 65.5725 19.9275C64.9786 19.3336 64.1732 19 63.3333 19C62.4935 19 61.688 19.3336 61.0942 19.9275C60.5003 20.5214 60.1667 21.3268 60.1667 22.1667C60.1667 28.0456 57.8313 33.6838 53.6742 37.8409C49.5171 41.9979 43.879 44.3333 38 44.3333C32.121 44.3333 26.4829 41.9979 22.3258 37.8409C18.1687 33.6838 15.8333 28.0456 15.8333 22.1667C15.8333 21.3268 15.4997 20.5214 14.9058 19.9275C14.312 19.3336 13.5065 19 12.6667 19C11.8268 19 11.0214 19.3336 10.4275 19.9275C9.83363 20.5214 9.5 21.3268 9.5 22.1667C9.50333 29.1747 12.0886 35.9358 16.7619 41.1582C21.4351 46.3805 27.8687 49.698 34.8333 50.4767V53.8333H31.6667C30.8268 53.8333 30.0214 54.167 29.4275 54.7608C28.8336 55.3547 28.5 56.1601 28.5 57C28.5 57.8399 28.8336 58.6453 29.4275 59.2392C30.0214 59.833 30.8268 60.1667 31.6667 60.1667H34.8333V66.5C34.8333 67.3399 35.167 68.1453 35.7608 68.7392C36.3547 69.333 37.1601 69.6667 38 69.6667C38.8399 69.6667 39.6453 69.333 40.2392 68.7392C40.833 68.1453 41.1667 67.3399 41.1667 66.5V60.1667H44.3333C45.1732 60.1667 45.9786 59.833 46.5725 59.2392C47.1664 58.6453 47.5 57.8399 47.5 57C47.5 56.1601 47.1664 55.3547 46.5725 54.7608C45.9786 54.167 45.1732 53.8333 44.3333 53.8333H41.1667V50.4767C48.1313 49.698 54.5649 46.3805 59.2381 41.1582C63.9114 35.9358 66.4967 29.1747 66.5 22.1667V22.1667Z" fill="black"></path>
<path d="M38 38C41.1316 38 44.1928 37.0714 46.7965 35.3317C49.4003 33.5919 51.4297 31.119 52.6281 28.2259C53.8265 25.3327 54.1401 22.1492 53.5291 19.0778C52.9182 16.0064 51.4102 13.1852 49.1959 10.9709C46.9815 8.75653 44.1603 7.24855 41.089 6.63761C38.0176 6.02668 34.834 6.34023 31.9409 7.53862C29.0477 8.73701 26.5749 10.7664 24.8351 13.3702C23.0953 15.974 22.1667 19.0352 22.1667 22.1667C22.1667 26.366 23.8348 30.3932 26.8042 33.3626C29.7735 36.3319 33.8008 38 38 38V38ZM38 12.6667C39.8789 12.6667 41.7157 13.2239 43.2779 14.2678C44.8402 15.3116 46.0578 16.7953 46.7769 18.5312C47.4959 20.2671 47.684 22.1773 47.3175 24.0201C46.9509 25.8629 46.0461 27.5556 44.7175 28.8842C43.3889 30.2128 41.6962 31.1176 39.8534 31.4842C38.0106 31.8507 36.1004 31.6626 34.3645 30.9436C32.6286 30.2245 31.1449 29.0069 30.1011 27.4446C29.0572 25.8824 28.5 24.0456 28.5 22.1667C28.5 19.6472 29.5009 17.2308 31.2825 15.4492C33.0641 13.6676 35.4805 12.6667 38 12.6667V12.6667Z" fill="black"></path>
</svg>