<svg width="66" height="66" viewBox="0 0 66 66" fill="none" xmlns="http://www.w3.org/2000/svg">
<g clip-path="url(#clip0_120_770)">
<path d="M16.1534 27.4763C15.7624 27.4762 15.3803 27.592 15.0552 27.8092C14.7301 28.0263 14.4767 28.335 14.3271 28.6962C14.1775 29.0574 14.1384 29.4549 14.2148 29.8383C14.2911 30.2217 14.4795 30.5739 14.756 30.8502L22.5107 38.6049C22.6208 38.715 22.7082 38.8457 22.7678 38.9895C22.8274 39.1334 22.8581 39.2876 22.8581 39.4433C22.8581 39.5991 22.8274 39.7533 22.7678 39.8971C22.7082 40.041 22.6208 40.1717 22.5107 40.2818L0.667241 62.1298C0.308786 62.4623 0.078547 62.9102 0.0167373 63.3952C-0.0450725 63.8803 0.0654765 64.3716 0.329075 64.7834C0.495447 65.0188 0.711197 65.215 0.961255 65.3583C1.21131 65.5017 1.48965 65.5887 1.77683 65.6133C2.064 65.6379 2.35309 65.5996 2.62391 65.5009C2.89473 65.4022 3.14074 65.2456 3.34476 65.042L25.307 43.0775C25.5337 42.8633 25.8337 42.7439 26.1455 42.7439C26.4573 42.7439 26.7574 42.8633 26.984 43.0775L34.7417 50.836C35.1125 51.2066 35.6152 51.4148 36.1394 51.4147C36.6637 51.4147 37.1664 51.2064 37.537 50.8356C37.9077 50.4649 38.1158 49.9621 38.1158 49.4379C38.1157 48.9137 37.9074 48.411 37.5366 48.0403L29.7789 40.2818C29.6688 40.1717 29.5814 40.041 29.5218 39.8971C29.4622 39.7533 29.4315 39.5991 29.4315 39.4433C29.4315 39.2876 29.4622 39.1334 29.5218 38.9895C29.5814 38.8457 29.6688 38.715 29.7789 38.6049L59.6008 8.77753C59.7666 8.6117 59.9778 8.49874 60.2078 8.45293C60.4378 8.40713 60.6761 8.43054 60.8928 8.52019C61.1095 8.60985 61.2947 8.76173 61.4251 8.95664C61.5554 9.15155 61.6251 9.38073 61.6252 9.61521L61.6298 19.9965C61.6119 20.486 61.7662 20.9663 62.0658 21.3538C62.3654 21.7413 62.7915 22.0115 63.2697 22.1174C63.5545 22.1668 63.8466 22.1533 64.1256 22.0779C64.4045 22.0024 64.6637 21.8669 64.8848 21.6809C65.1059 21.4948 65.2836 21.2626 65.4055 21.0006C65.5274 20.7385 65.5906 20.453 65.5906 20.164L65.5828 0.291764C65.5829 0.215024 65.5525 0.141389 65.4984 0.0869792C65.4443 0.0325696 65.3708 0.00181764 65.2941 0.00145449H45.6325C45.1436 -0.0167924 44.6637 0.137119 44.2765 0.436365C43.8894 0.735612 43.6195 1.16122 43.514 1.63901C43.4645 1.92345 43.4778 2.21528 43.5529 2.49403C43.6281 2.77279 43.7633 3.03173 43.9491 3.25271C44.135 3.47368 44.3669 3.65134 44.6286 3.77323C44.8903 3.89512 45.1755 3.9583 45.4642 3.95832H55.9659C56.2006 3.95808 56.43 4.0275 56.6252 4.15777C56.8203 4.28803 56.9724 4.47329 57.0622 4.69008C57.152 4.90687 57.1754 5.14543 57.1295 5.37554C57.0836 5.60565 56.9705 5.81696 56.8044 5.98271L26.9824 35.8092C26.7558 36.0234 26.4558 36.1427 26.144 36.1427C25.8321 36.1427 25.5321 36.0234 25.3055 35.8092L17.5508 28.0546C17.3677 27.8706 17.1499 27.7248 16.91 27.6256C16.6701 27.5263 16.413 27.4756 16.1534 27.4763V27.4763Z" fill="black"></path>
</g>
<defs>
<clipPath id="clip0_120_770">
<rect width="65.5906" height="65.6206" fill="white"></rect>
</clipPath>
</defs>
</svg>