<svg width="76" height="76" viewBox="0 0 76 76" fill="none" xmlns="http://www.w3.org/2000/svg">
<path d="M57 47.5C56.1601 47.5 55.3547 47.8337 54.7608 48.4275C54.1669 49.0214 53.8333 49.8269 53.8333 50.6667C53.8333 54.4667 53.2 63.3334 47.5 63.3334C42.94 63.3334 41.1666 61.56 41.1666 57C41.8373 53.2769 43.0988 49.6849 44.9033 46.36C48.07 39.0767 51.5533 31.54 48.26 26.41C47.0552 24.8846 45.4795 23.6935 43.6832 22.9507C41.887 22.2078 39.9303 21.9379 38 22.1667C36.1475 22.1538 34.3187 22.5839 32.6662 23.4211C31.0136 24.2584 29.5852 25.4786 28.5 26.98V22.1667H31.6666C32.5065 22.1667 33.312 21.8331 33.9058 21.2392C34.4997 20.6453 34.8333 19.8399 34.8333 19C34.8333 18.1602 34.4997 17.3547 33.9058 16.7609C33.312 16.167 32.5065 15.8334 31.6666 15.8334H28.5V9.50004C28.5 8.66019 28.1663 7.85473 27.5725 7.26087C26.9786 6.667 26.1732 6.33337 25.3333 6.33337C24.4935 6.33337 23.688 6.667 23.0941 7.26087C22.5003 7.85473 22.1666 8.66019 22.1666 9.50004V15.8334H19C18.1601 15.8334 17.3547 16.167 16.7608 16.7609C16.1669 17.3547 15.8333 18.1602 15.8333 19C15.8333 19.8399 16.1669 20.6453 16.7608 21.2392C17.3547 21.8331 18.1601 22.1667 19 22.1667H22.1666V50.6667C22.1666 51.5066 22.5003 52.312 23.0941 52.9059C23.688 53.4997 24.4935 53.8334 25.3333 53.8334C26.1732 53.8334 26.9786 53.4997 27.5725 52.9059C28.1663 52.312 28.5 51.5066 28.5 50.6667C28.5 44.9034 30.2733 28.5 38 28.5C40.5966 28.5 42.37 28.975 42.94 29.83C44.365 32.0784 41.1983 39.1084 39.1083 43.7634C36.866 47.8685 35.4158 52.3588 34.8333 57C34.6541 58.7074 34.8586 60.4333 35.4318 62.0516C36.0051 63.6698 36.9325 65.1396 38.1465 66.3536C39.3604 67.5675 40.8302 68.495 42.4484 69.0682C44.0667 69.6414 45.7926 69.8459 47.5 69.6667C55.4166 69.6667 60.1666 62.5734 60.1666 50.6667C60.1666 49.8269 59.833 49.0214 59.2392 48.4275C58.6453 47.8337 57.8398 47.5 57 47.5Z" fill="black"></path>
</svg>