<svg width="66" height="66" viewBox="0 0 66 66" fill="none" xmlns="http://www.w3.org/2000/svg">
<g clip-path="url(#clip0_120_782)">
<path d="M28.1948 13.6249C29.4934 13.6218 30.7401 14.1344 31.6608 15.0502C32.5815 15.966 33.1008 17.2099 33.1046 18.5085V42.2955C33.1081 45.3514 34.3235 48.2812 36.4844 50.442C38.6453 52.6029 41.575 53.8183 44.6309 53.8217H55.2653C55.4995 53.8219 55.7284 53.8914 55.9232 54.0216C56.1179 54.1518 56.2696 54.3367 56.3593 54.5531C56.449 54.7695 56.4725 55.0076 56.4269 55.2373C56.3813 55.467 56.2686 55.6781 56.1032 55.8439L49.7691 62.1856C49.3991 62.5572 49.1916 63.0603 49.1918 63.5847C49.1921 64.109 49.4003 64.6119 49.7707 64.9831C50.1479 65.3426 50.649 65.5432 51.1702 65.5432C51.6913 65.5432 52.1924 65.3426 52.5697 64.9831L65.4892 52.0511C65.5433 51.997 65.5737 51.9236 65.5737 51.847C65.5737 51.7705 65.5433 51.6971 65.4892 51.643L52.5959 38.7489C52.2252 38.3782 51.7223 38.1699 51.198 38.1699C50.6736 38.1699 50.1708 38.3782 49.8 38.7489C49.4292 39.1197 49.221 39.6225 49.221 40.1469C49.221 40.6712 49.4292 41.1741 49.8 41.5448L56.1032 47.8488C56.2691 48.0144 56.3822 48.2255 56.428 48.4555C56.4739 48.6854 56.4505 48.9238 56.3608 49.1404C56.271 49.357 56.1191 49.5421 55.924 49.6723C55.729 49.8025 55.4998 49.8718 55.2653 49.8716H44.5754C42.5813 49.8694 40.6696 49.0763 39.2597 47.6662C37.8497 46.2561 37.0568 44.3443 37.0548 42.3502V18.9197C37.046 17.6732 36.7918 16.4405 36.3065 15.2923C35.8211 14.1441 35.1143 13.1027 34.2264 12.2277C32.6385 10.6134 30.4746 9.69569 28.2102 9.67636C28.1794 9.67636 28.1485 9.67636 28.1192 9.67712C25.8931 9.69406 23.7584 10.5648 22.1555 12.1097C21.9347 12.3227 21.6399 12.4418 21.3331 12.4418C21.0263 12.4418 20.7314 12.3227 20.5106 12.1097C19.2807 10.952 17.7465 10.1685 16.0876 9.85099C14.4286 9.53347 12.7136 9.695 11.1431 10.3167C10.971 10.3864 10.7849 10.4147 10.5998 10.3992C10.4148 10.3837 10.236 10.3249 10.0778 10.2276C9.91969 10.1303 9.78665 9.99717 9.68945 9.83896C9.59224 9.68074 9.53361 9.50189 9.51828 9.31683C9.3443 7.27966 8.5969 5.33343 7.3626 3.70344C6.12831 2.07346 4.4576 0.826397 2.5439 0.106625C2.24753 0.00333263 1.9303 -0.025493 1.62017 0.0226867C1.31004 0.0708664 1.01651 0.194573 0.765445 0.38291C0.51438 0.571247 0.313482 0.818434 0.180448 1.1027C0.0474139 1.38696 -0.0136747 1.69958 0.00256378 2.01301C0.0158883 2.42973 0.153861 2.83288 0.398658 3.17038C0.643455 3.50787 0.983829 3.76421 1.37581 3.90628C2.62751 4.41306 3.69861 5.28335 4.45085 6.40483C5.2031 7.52631 5.60196 8.8475 5.59597 10.1979V46.4153C5.58412 46.93 5.76383 47.4308 6.10024 47.8205C6.43666 48.2102 6.9058 48.4611 7.41671 48.5246C7.68839 48.546 7.96157 48.5109 8.21904 48.4216C8.47651 48.3323 8.7127 48.1906 8.91272 48.0055C9.11275 47.8204 9.27229 47.5959 9.38129 47.3461C9.49028 47.0963 9.54639 46.8267 9.54606 46.5542V18.7245C9.5281 17.483 9.96896 16.2784 10.7841 15.3418C11.5993 14.4052 12.7315 13.8023 13.9637 13.6488C14.641 13.5808 15.325 13.6564 15.9711 13.8707C16.6172 14.085 17.2108 14.4332 17.7132 14.8925C18.216 15.3512 18.6177 15.9097 18.8926 16.5323C19.1676 17.1549 19.3098 17.8279 19.3102 18.5085V46.5542C19.3184 47.081 19.5335 47.5834 19.9089 47.953C20.2843 48.3227 20.79 48.5298 21.3169 48.5298C21.8437 48.5298 22.3494 48.3227 22.7249 47.953C23.1003 47.5834 23.3153 47.081 23.3236 46.5542V18.7299C23.3094 17.495 23.7465 16.2974 24.5528 15.362C25.3591 14.4266 26.4791 13.8176 27.7026 13.6496C27.8661 13.6329 28.0304 13.6247 28.1948 13.6249V13.6249Z" fill="black"></path>
</g>
<defs>
<clipPath id="clip0_120_782">
<rect width="65.5737" height="65.5432" fill="white"></rect>
</clipPath>
</defs>
</svg>