<svg width="64" height="64" viewBox="0 0 64 64" fill="none" xmlns="http://www.w3.org/2000/svg">
<g clip-path="url(#clip0_120_789)">
<path d="M31.6667 0C25.4036 0 19.2812 1.85722 14.0736 5.3368C8.86607 8.81637 4.80727 13.762 2.4105 19.5484C0.0137207 25.3347 -0.613385 31.7018 0.60848 37.8445C1.83035 43.9873 4.8463 49.6297 9.27497 54.0584C13.7036 58.487 19.3461 61.503 25.4888 62.7249C31.6316 63.9467 37.9987 63.3196 43.785 60.9229C49.5713 58.5261 54.517 54.4673 57.9965 49.2597C61.4761 44.0522 63.3333 37.9297 63.3333 31.6667C63.3333 27.5081 62.5143 23.3903 60.9229 19.5484C59.3315 15.7064 56.9989 12.2155 54.0584 9.27495C51.1179 6.33443 47.627 4.00188 43.785 2.41048C39.943 0.819083 35.8252 0 31.6667 0V0ZM31.6667 57C26.6562 57 21.7583 55.5142 17.5922 52.7306C13.4262 49.9469 10.1792 45.9904 8.26173 41.3613C6.34431 36.7323 5.84263 31.6386 6.82012 26.7244C7.79761 21.8102 10.2104 17.2962 13.7533 13.7533C17.2962 10.2104 21.8102 7.7976 26.7244 6.82011C31.6386 5.84261 36.7323 6.3443 41.3613 8.26172C45.9904 10.1791 49.9469 13.4262 52.7306 17.5922C55.5142 21.7583 57 26.6562 57 31.6667C57 38.3855 54.331 44.8291 49.5801 49.58C44.8291 54.331 38.3855 57 31.6667 57V57Z" fill="black"></path>
<path d="M31.6667 38C35.1645 38 38 35.1645 38 31.6667C38 28.1689 35.1645 25.3334 31.6667 25.3334C28.1689 25.3334 25.3334 28.1689 25.3334 31.6667C25.3334 35.1645 28.1689 38 31.6667 38Z" fill="black"></path>
</g>
<defs>
<clipPath id="clip0_120_789">
<rect width="63.3333" height="63.3334" fill="white"></rect>
</clipPath>
</defs>
</svg>