<svg width="49" height="66" viewBox="0 0 49 66" fill="none" xmlns="http://www.w3.org/2000/svg">
<g clip-path="url(#clip0_120_784)">
<path d="M1.98614 0.00287576C1.70291 -9.6234e-06 1.42244 0.0588414 1.16426 0.175335C0.906074 0.291829 0.676367 0.463169 0.491114 0.677438C0.30181 0.897431 0.161894 1.15547 0.0808093 1.43414C-0.000275497 1.71281 -0.0206431 2.00563 0.0210797 2.29285C0.648725 6.77449 2.49978 10.9963 5.37079 14.4944C8.24181 17.9924 12.0216 20.6313 16.2948 22.1208C16.5217 22.2006 16.719 22.3475 16.8604 22.542C17.0018 22.7365 17.0808 22.9694 17.0867 23.2099C17.0927 23.4503 17.0253 23.6868 16.8937 23.8881C16.762 24.0893 16.5723 24.2458 16.3496 24.3367C12.3963 25.9428 9.01562 28.6979 6.64463 32.2457C4.27365 35.7935 3.02138 39.9709 3.0497 44.238C3.12584 49.7042 5.26435 54.94 9.03691 58.8964C12.8095 62.8529 17.9375 65.2381 23.394 65.5741C28.4464 65.8313 33.4269 64.2932 37.4544 61.2318C41.4818 58.1705 44.2967 53.7833 45.401 48.8464C46.5053 43.9095 45.8278 38.7411 43.4884 34.2556C41.149 29.7701 37.2984 26.2566 32.618 24.3368C32.3953 24.2459 32.2056 24.0894 32.0739 23.8882C31.9423 23.6869 31.875 23.4503 31.8809 23.2099C31.8869 22.9695 31.9658 22.7366 32.1072 22.5421C32.2487 22.3476 32.4459 22.2007 32.6728 22.1209C36.9422 20.5964 40.7149 17.9362 43.5845 14.4266C46.4541 10.9171 48.312 6.69122 48.9581 2.20409C48.9982 1.92511 48.978 1.64077 48.899 1.37025C48.8199 1.09972 48.6837 0.84929 48.4997 0.635837C48.3273 0.435742 48.1135 0.275504 47.8731 0.166225C47.6327 0.0569446 47.3714 0.00123407 47.1073 0.00295214C46.6251 -0.0233789 46.1499 0.127136 45.7707 0.426259C45.3916 0.725383 45.1347 1.15256 45.0481 1.62765C44.3683 6.59916 41.9106 11.1561 38.1297 14.4551C34.3489 17.754 29.5009 19.5716 24.4832 19.5714C19.4654 19.5712 14.6176 17.7533 10.837 14.4541C7.05637 11.1548 4.59896 6.59769 3.91958 1.62612C3.87511 1.18761 3.67179 0.780496 3.34793 0.481511C3.02407 0.182525 2.60205 0.0123135 2.16138 0.00295214L1.98614 0.00287576ZM24.4838 61.6494C21.0261 61.6494 17.6461 60.6241 14.7711 58.7031C11.8961 56.7821 9.65536 54.0517 8.33215 50.8572C7.00895 47.6627 6.66274 44.1476 7.3373 40.7563C8.01186 37.3651 9.6769 34.25 12.1219 31.805C14.5668 29.3601 17.6819 27.695 21.0732 27.0205C24.4644 26.3459 27.9796 26.6921 31.174 28.0153C34.3685 29.3385 37.0989 31.5793 39.0199 34.4543C40.9409 37.3292 41.9662 40.7093 41.9662 44.167C41.961 48.802 40.1175 53.2457 36.84 56.5232C33.5626 59.8006 29.1189 61.6442 24.4838 61.6494V61.6494Z" fill="black"></path>
</g>
<defs>
<clipPath id="clip0_120_784">
<rect width="48.9782" height="65.6019" fill="white"></rect>
</clipPath>
</defs>
</svg>