<svg width="76" height="76" viewBox="0 0 76 76" fill="none" xmlns="http://www.w3.org/2000/svg">
<path d="M66.5 44.3334H60.1666V12.6667H66.5C67.3398 12.6667 68.1453 12.3331 68.7392 11.7392C69.333 11.1453 69.6666 10.3399 69.6666 9.50004C69.6666 8.66019 69.333 7.85473 68.7392 7.26087C68.1453 6.667 67.3398 6.33337 66.5 6.33337H57C56.1601 6.33337 55.3547 6.667 54.7608 7.26087C54.1669 7.85473 53.8333 8.66019 53.8333 9.50004V25.3334H41.1666V9.50004C41.1666 8.66019 40.833 7.85473 40.2392 7.26087C39.6453 6.667 38.8398 6.33337 38 6.33337C37.1601 6.33337 36.3547 6.667 35.7608 7.26087C35.1669 7.85473 34.8333 8.66019 34.8333 9.50004V25.3334H22.1666V9.50004C22.1666 8.66019 21.833 7.85473 21.2392 7.26087C20.6453 6.667 19.8398 6.33337 19 6.33337H9.49998C8.66013 6.33337 7.85467 6.667 7.26081 7.26087C6.66694 7.85473 6.33331 8.66019 6.33331 9.50004C6.33331 10.3399 6.66694 11.1453 7.26081 11.7392C7.85467 12.3331 8.66013 12.6667 9.49998 12.6667H15.8333V44.3334H9.49998C8.66013 44.3334 7.85467 44.667 7.26081 45.2609C6.66694 45.8547 6.33331 46.6602 6.33331 47.5C6.33331 48.3399 6.66694 49.1453 7.26081 49.7392C7.85467 50.3331 8.66013 50.6667 9.49998 50.6667H19C19.8398 50.6667 20.6453 50.3331 21.2392 49.7392C21.833 49.1453 22.1666 48.3399 22.1666 47.5V31.6667H34.8333V44.7767C31.8482 45.5475 29.2467 47.3804 27.5164 49.9321C25.7861 52.4837 25.0458 55.5788 25.4343 58.6372C25.8227 61.6956 27.3133 64.5074 29.6266 66.5454C31.9398 68.5834 34.917 69.7078 38 69.7078C41.083 69.7078 44.0601 68.5834 46.3734 66.5454C48.6867 64.5074 50.1772 61.6956 50.5657 58.6372C50.9542 55.5788 50.2139 52.4837 48.4836 49.9321C46.7532 47.3804 44.1517 45.5475 41.1666 44.7767V31.6667H53.8333V47.5C53.8333 48.3399 54.1669 49.1453 54.7608 49.7392C55.3547 50.3331 56.1601 50.6667 57 50.6667H66.5C67.3398 50.6667 68.1453 50.3331 68.7392 49.7392C69.333 49.1453 69.6666 48.3399 69.6666 47.5C69.6666 46.6602 69.333 45.8547 68.7392 45.2609C68.1453 44.667 67.3398 44.3334 66.5 44.3334ZM44.3333 57C44.3333 58.2527 43.9619 59.4771 43.266 60.5187C42.57 61.5602 41.5809 62.3719 40.4236 62.8513C39.2664 63.3306 37.993 63.4561 36.7644 63.2117C35.5359 62.9673 34.4074 62.3641 33.5216 61.4784C32.6359 60.5927 32.0327 59.4642 31.7883 58.2356C31.544 57.0071 31.6694 55.7336 32.1487 54.5764C32.6281 53.4191 33.4399 52.43 34.4814 51.7341C35.5229 51.0382 36.7474 50.6667 38 50.6667C39.6797 50.6667 41.2906 51.334 42.4783 52.5217C43.6661 53.7094 44.3333 55.3203 44.3333 57Z" fill="black"></path>
</svg>