<svg width="76" height="76" viewBox="0 0 76 76" fill="none" xmlns="http://www.w3.org/2000/svg">
<path d="M60.1667 28.5C60.1717 24.25 58.9548 20.0881 56.6609 16.5103C54.3671 12.9324 51.0931 10.0894 47.2289 8.31991C43.3647 6.55045 39.0733 5.92916 34.866 6.53006C30.6586 7.13096 26.7127 8.92871 23.4984 11.7091C20.284 14.4895 17.9367 18.1354 16.7362 22.2123C15.5356 26.2893 15.5324 30.6254 16.7269 34.7041C17.9214 38.7829 20.2633 42.4322 23.4735 45.2174C26.6837 48.0026 30.6269 49.8062 34.8334 50.4134V53.8334H31.6667C30.8268 53.8334 30.0214 54.167 29.4275 54.7609C28.8337 55.3547 28.5 56.1602 28.5 57C28.5 57.8399 28.8337 58.6453 29.4275 59.2392C30.0214 59.8331 30.8268 60.1667 31.6667 60.1667H34.8334V66.5C34.8334 67.3399 35.167 68.1453 35.7609 68.7392C36.3547 69.3331 37.1602 69.6667 38 69.6667C38.8399 69.6667 39.6453 69.3331 40.2392 68.7392C40.8331 68.1453 41.1667 67.3399 41.1667 66.5V60.1667H44.3334C45.1732 60.1667 45.9787 59.8331 46.5725 59.2392C47.1664 58.6453 47.5 57.8399 47.5 57C47.5 56.1602 47.1664 55.3547 46.5725 54.7609C45.9787 54.167 45.1732 53.8334 44.3334 53.8334H41.1667V50.4134C46.4379 49.6525 51.259 47.0193 54.748 42.9954C58.2369 38.9714 60.1604 33.8259 60.1667 28.5V28.5ZM22.1667 28.5C22.1667 25.3685 23.0953 22.3073 24.8351 19.7035C26.5749 17.0997 29.0477 15.0703 31.9409 13.8719C34.834 12.6735 38.0176 12.36 41.089 12.9709C44.1603 13.5819 46.9815 15.0898 49.1959 17.3042C51.4102 19.5185 52.9182 22.3397 53.5291 25.4111C54.1401 28.4825 53.8265 31.666 52.6281 34.5592C51.4297 37.4523 49.4003 39.9252 46.7966 41.665C44.1928 43.4048 41.1316 44.3334 38 44.3334C33.8008 44.3334 29.7735 42.6652 26.8042 39.6959C23.8348 36.7266 22.1667 32.6993 22.1667 28.5V28.5Z" fill="black"></path>
</svg>