<svg width="53" height="66" viewBox="0 0 53 66" fill="none" xmlns="http://www.w3.org/2000/svg">
<g clip-path="url(#clip0_120_772)">
<path d="M49.5935 61.6883L49.5827 61.6837C48.9639 61.433 48.3282 61.1483 47.6586 60.7972C47.4071 60.6746 47.2528 60.5967 47.1077 60.5094C46.9328 60.4038 46.7881 60.2547 46.6878 60.0767C46.5875 59.8986 46.5349 59.6977 46.5352 59.4933C46.5355 59.2889 46.5887 59.0881 46.6896 58.9104C46.7904 58.7326 46.9355 58.584 47.1108 58.4789C48.4831 57.6433 49.6429 56.5009 50.4992 55.1413C51.6929 53.1899 52.3171 50.9436 52.3014 48.656C52.3014 42.5573 47.9918 37.5957 42.6946 37.5957C41.3331 37.5958 39.9923 37.929 38.7892 38.5663C38.6086 38.6609 38.4067 38.7072 38.2029 38.7009C37.9991 38.6946 37.8004 38.6358 37.626 38.5302C37.4516 38.4246 37.3074 38.2758 37.2074 38.0982C37.1073 37.9206 37.0548 37.7201 37.0549 37.5163V18.919C37.0351 16.4111 36.0239 14.0128 34.242 12.2478C33.4498 11.4379 32.5046 10.7935 31.4612 10.3521C30.4178 9.91065 29.2971 9.68097 28.1641 9.6764C25.9224 9.68181 23.7694 10.5537 22.1556 12.1096C21.9347 12.3226 21.6398 12.4415 21.333 12.4414C21.0262 12.4413 20.7314 12.3221 20.5108 12.1089C19.2805 10.9523 17.7466 10.1696 16.0881 9.85206C14.4296 9.53456 12.7151 9.69542 11.1446 10.3158C10.9725 10.3859 10.7863 10.4144 10.6011 10.3992C10.4159 10.3839 10.2369 10.3253 10.0785 10.228C9.92021 10.1307 9.78699 9.99757 9.68968 9.83926C9.59236 9.68095 9.53367 9.50196 9.51836 9.31677C9.34447 7.27946 8.5971 5.33306 7.36277 3.70292C6.12844 2.07279 4.45765 0.825603 2.54383 0.105753C2.2474 0.00295979 1.93025 -0.0254659 1.62026 0.0229725C1.31027 0.0714109 1.01692 0.195231 0.765976 0.383557C0.51503 0.571882 0.314171 0.81895 0.181041 1.10306C0.047912 1.38716 -0.0134138 1.69961 0.0024515 2.01297C0.0157772 2.42969 0.15375 2.83284 0.398546 3.17035C0.643343 3.50785 0.983715 3.7642 1.3757 3.90628C2.62748 4.41271 3.69867 5.2828 4.45094 6.40419C5.20321 7.52558 5.602 8.84676 5.59579 10.1971V46.5545C5.5963 47.0782 5.80456 47.5803 6.17485 47.9505C6.54515 48.3208 7.04723 48.5291 7.57091 48.5296C7.83007 48.5327 8.08719 48.4834 8.32687 48.3848C8.56655 48.2861 8.78387 48.1401 8.96581 47.9556C9.15066 47.7722 9.29715 47.5539 9.39676 47.3134C9.49637 47.0728 9.5471 46.8149 9.54599 46.5545V18.7138C9.52721 17.4712 9.9694 16.2656 10.7872 15.3298C11.605 14.3941 12.7405 13.7944 13.9745 13.6466C14.6507 13.5782 15.3338 13.654 15.9786 13.8692C16.6234 14.0844 17.2151 14.434 17.7147 14.8948C18.2169 15.3535 18.618 15.9117 18.8927 16.5338C19.1674 17.156 19.3096 17.8285 19.3102 18.5086V46.5545C19.3184 47.0813 19.5335 47.5837 19.9089 47.9533C20.2843 48.323 20.7901 48.5301 21.3169 48.5301C21.8438 48.5301 22.3495 48.323 22.7249 47.9533C23.1004 47.5837 23.3154 47.0813 23.3236 46.5545V18.73C23.3092 17.4952 23.7461 16.2977 24.5521 15.3621C25.3581 14.4265 26.4778 13.8173 27.7011 13.6488C28.3822 13.5785 29.0705 13.6517 29.7216 13.8637C30.3727 14.0757 30.9722 14.4218 31.4813 14.8797C31.9904 15.3376 32.3979 15.8971 32.6776 16.5221C32.9572 17.1471 33.1027 17.8238 33.1048 18.5086V48.7032C33.0813 50.9602 33.7017 53.1772 34.8932 55.0943C34.9554 55.1709 35.0092 55.2539 35.0536 55.342C35.8811 56.652 36.8841 57.8424 38.0347 58.8801C38.1735 59.0093 38.2792 59.1698 38.3431 59.3483C38.407 59.5267 38.4272 59.7179 38.4019 59.9058C38.3767 60.0936 38.3068 60.2727 38.198 60.4279C38.0893 60.5832 37.9449 60.7101 37.777 60.798C37.0912 61.157 36.3854 61.4764 35.6631 61.7548C35.2691 61.9031 34.9348 62.1769 34.7117 62.5339C34.4887 62.891 34.3892 63.3114 34.4287 63.7306C34.4503 64.0401 34.5443 64.3402 34.7033 64.6066C34.8622 64.873 35.0816 65.0984 35.3437 65.2643C35.5888 65.4241 35.8681 65.5239 36.1589 65.5558C36.4497 65.5877 36.744 65.5508 37.0179 65.4479C38.7842 64.763 40.4841 63.9175 42.096 62.922C42.2824 62.8079 42.4968 62.7479 42.7154 62.7487C42.9339 62.7495 43.1479 62.8112 43.3334 62.9267C44.9425 63.9287 46.6446 64.7728 48.4161 65.4472C48.711 65.5451 49.0248 65.5718 49.332 65.5252C49.6391 65.4786 49.9309 65.3601 50.1835 65.1792C50.4361 64.9984 50.6424 64.7604 50.7855 64.4846C50.9286 64.2089 51.0044 63.9032 51.0069 63.5926C50.9862 63.1709 50.8408 62.7649 50.5892 62.4259C50.3376 62.0869 49.9911 61.8302 49.5935 61.6883V61.6883ZM42.6946 55.7662C41.8933 55.7398 41.109 55.5275 40.4037 55.1462C39.6984 54.7649 39.0913 54.225 38.6304 53.5689C38.5354 53.4513 38.4522 53.3247 38.3819 53.1909C37.4998 51.8617 37.0376 50.2982 37.0549 48.703C37.0549 44.8015 39.638 41.5457 42.6946 41.5457C45.8131 41.5457 48.3513 44.7352 48.3513 48.6559C48.3513 52.5766 45.8131 55.7663 42.6946 55.7663V55.7662Z" fill="black"></path>
</g>
<defs>
<clipPath id="clip0_120_772">
<rect width="52.3017" height="65.5669" fill="white"></rect>
</clipPath>
</defs>
</svg>