<svg width="858" height="844" viewBox="0 0 858 844" fill="none" xmlns="http://www.w3.org/2000/svg">
<path d="M272.547 364.044C269.233 360.582 268.265 354.874 273.038 354.205C274.285 354.049 275.553 353.93 276.786 353.9C281.862 353.871 287.191 354.945 291.102 358.334C293.752 360.748 296.607 362.977 299.806 364.66C309.622 370.206 322.355 370.745 332.501 365.273C335.095 363.857 338.025 362.294 339.135 359.312C340.46 356.444 339.087 352.951 336.56 351.288C333.498 348.861 329.166 348.798 326.236 346.162C322.346 342.809 320.38 337.773 319.425 332.814C318.19 326.13 318.845 319.111 321.107 312.659C323.13 306.167 324.346 299.098 322.472 292.482C321.268 287.883 322.761 283.033 327.189 284.66C327.692 284.843 328.184 285.042 328.677 285.241C333.404 287.304 337.658 290.708 340.38 295.143C341.934 298.033 342.471 301.38 344.025 304.27C348.123 313.031 355.721 320.096 364.939 323.019C369.529 324.389 374.47 324.994 379.246 324.215C382.526 323.636 385.09 320.45 384.756 317.096C384.317 313.698 381.986 311.059 379.83 308.597C377.125 305.43 376.502 300.995 376.885 296.926C377.912 287.988 382.799 279.757 389.517 273.872C394.59 269.126 399.366 263.519 401.126 256.638C402.348 252.043 406.332 248.496 409.254 252.159C409.877 252.956 410.463 253.776 411.009 254.591C413.378 258.22 414.928 262.41 415.207 266.761C415.481 270.28 413.987 273.625 413.912 277.103C412.901 286.995 415.926 297.279 422.576 304.621C426.076 308.312 430.313 311.571 435.327 312.828C438.601 313.659 442.168 311.331 442.965 308.04C444.248 304.539 442.978 300.953 442.61 297.443C442.486 292.672 445.055 288.254 448.192 284.823C453.692 278.91 461.048 274.708 468.91 273.205C475.92 271.545 483.198 268.866 488.015 263.195C490.871 260.036 495.522 258.931 496.291 263.099C496.611 264.76 496.766 266.474 496.826 268.129C496.856 271.964 496.319 275.892 494.673 279.41C492.881 283.263 489.355 285.91 487.247 289.563C480.595 299.576 479.083 313.059 484.274 323.902C485.677 326.472 486.915 329.409 489.493 330.992C491.979 332.651 495.6 332.197 497.574 329.874C501.085 326.342 500.877 320.62 504.677 317.294C509.478 312.803 516.154 311.113 522.474 310.792C528.09 310.43 533.596 311.818 538.884 313.517C545.049 315.12 551.811 315.953 557.95 313.609C561.52 312.293 566.228 313.895 565.072 317.544C563.492 322.496 560.27 327.041 556.37 330.349C553.332 333.168 549.109 333.736 545.532 335.519C536.923 339.537 529.589 346.851 526.424 355.922C524.694 360.062 524.127 364.598 524.271 369.023C524.345 371.494 524.985 374.188 527.083 375.692C529.19 377.427 532.337 377.303 534.679 376.042C538.3 374.399 540.636 370.665 544.547 369.542C549.446 368.009 554.677 368.887 559.42 370.399C565.17 372.659 570.509 376.097 574.587 380.76C579.837 386.611 586.411 392.22 594.583 393.023C598.21 393.54 600.903 396.34 598.256 398.958C596.874 400.308 595.323 401.506 593.743 402.574C590.233 404.916 586.167 406.459 582 406.904C579.028 407.273 576.173 406.234 573.273 405.93C562.403 404.434 550.723 407.927 542.843 415.863C539.708 419.115 536.952 422.921 535.574 427.237C534.538 430.243 536.154 433.734 539.022 434.893C542.258 436.239 545.84 435.357 549.171 434.699C553.333 433.913 557.512 435.653 560.726 438.154C567.479 443.338 572.019 451.188 573.673 459.552C575.187 466.704 577.642 474.114 583.178 479.092C586.37 482.117 587.412 486.973 583.063 487.775C581.781 488.021 580.493 488.173 579.219 488.267C573.699 488.51 567.763 487.524 563.492 483.795C560.842 481.381 558.049 479.124 554.815 477.531C544.753 471.92 531.641 471.456 521.462 477.401C518.486 479.002 515.207 481.468 515.125 485.166C515.098 485.418 515.107 485.648 515.116 485.879C515.36 491.579 523.347 492.22 527.73 495.772C531.871 498.903 534.02 503.964 535.106 508.961C536.576 515.727 536.096 522.923 533.779 529.498C531.733 536.132 530.269 543.313 532.198 550.122C533.105 553.478 535.122 556.368 537.646 558.703C537.715 558.768 537.763 558.866 537.786 558.971C537.864 559.267 537.646 559.578 537.339 559.609C531.167 560.046 525.048 557.844 520.23 554.107C516.981 551.629 514.164 548.324 512.991 544.306C510.843 537.179 506.701 530.657 501.006 525.895C495.086 521.035 487.508 518.137 479.799 518.21C477.087 518.204 473.981 518.331 471.924 520.4C469.89 522.327 469.451 525.507 470.586 527.976C472.03 531.986 476.21 534.355 477.235 538.572C478.639 543.59 477.765 549.033 475.864 553.828C473.612 559.703 469.788 564.922 465.106 569.084C459.539 574.124 454.599 580.481 453.256 588.03C452.591 591.988 449.351 594.95 446.682 592.007C445.164 590.353 443.862 588.498 442.777 586.579C440.31 582.057 438.775 576.688 439.935 571.492C442.32 561.592 440.897 550.658 435.259 542.204C431.459 536.504 425.914 531.679 419.188 529.88C415.495 529.188 411.811 532.296 411.599 536.024C410.805 540.081 413.018 543.992 412.192 548.029C411.344 552.59 408.428 556.474 405.119 559.617C400.139 564.287 393.92 567.702 387.281 569.124C380.144 570.704 372.706 573.215 367.634 578.837C364.637 581.974 359.522 583.011 358.803 578.763C358.269 575.551 358.33 572.2 358.822 569.008C359.334 565.223 360.911 561.57 363.538 558.738C369.742 551.99 373.78 543.11 374.074 533.934C374.351 526.744 372.2 519.481 368.065 513.683C366.095 510.822 361.76 509.433 358.774 511.679C354.105 515.018 354.645 521.893 350.319 525.493C345.566 529.767 339.061 531.431 332.871 531.722C328.048 531.91 323.206 531.256 318.696 529.689C312.269 527.697 305.257 526.526 298.615 528.44C296.005 529.217 293.566 530.596 291.573 532.459C290.507 533.448 289.114 533.241 289.058 531.791C289.195 524.963 292.492 518.445 297.251 513.636C299.415 511.432 302.098 509.735 305.061 508.889C314.561 505.771 323.071 499.041 327.5 489.892C330.072 484.489 331.477 478.415 330.89 472.454C330.616 469.564 328.96 466.521 325.97 465.8C321.901 464.444 318.128 467.518 315.224 470.018C312.28 472.898 308.058 473.779 304.124 473.609C296.798 473.25 289.902 470.041 284.315 465.459C281.554 463.29 279.485 460.411 276.888 458.053C272.24 453.592 266.535 449.721 259.971 449.17C256.471 448.802 253.908 445.971 256.41 443.442C258.819 440.989 261.768 439.011 264.82 437.57C269.009 435.657 273.791 434.589 278.283 435.764C289.175 438.171 301.297 435.585 309.936 428.197C314.178 424.521 317.736 419.829 319.318 414.384C320.067 411.309 318.125 407.95 315.101 407.142C310.204 405.419 305.166 408.817 300.261 407.247C294.107 405.451 289.524 400.537 286.128 395.317C283.677 391.434 281.905 387.105 281.046 382.589C279.654 375.873 277.329 369.061 272.547 364.044Z" fill="black"/>
</svg>
